<?xml version="1.0" encoding="utf-8"?>
<!-- Generator: Adobe Illustrator 22.1.0, SVG Export Plug-In . SVG Version: 6.00 Build 0)  -->
<svg version="1.1" xmlns="http://www.w3.org/2000/svg" xmlns:xlink="http://www.w3.org/1999/xlink" x="0px" y="0px"
	 viewBox="0 0 1024 1024" style="enable-background:new 0 0 1024 1024;" xml:space="preserve">
<g id="图层_1" style="display:none;">
</g>
<g id="图层_2" style="display:none;">
	
		<path style="display:inline;fill-rule:evenodd;clip-rule:evenodd;fill:none;stroke:#000000;stroke-width:64;stroke-miterlimit:10;" d="
		M55.3,363.8c5-15.4,10.7-30.4,17.2-45.1 M291.7,85.4C357.7,51.3,432.6,32,512,32c265.1,0,480,214.9,480,480
		c0,265.1-214.9,480-480,480S32,777.1,32,512c0-20.6,1.3-41,3.8-60.9"/>
	<g style="display:inline;">
		<path style="fill-rule:evenodd;clip-rule:evenodd;" d="M790,534c-12.5,12.5-31.9,13.3-43.4,1.9L539.3,328.5
			c-11.5-11.5-10.6-30.9,1.9-43.4c12.5-12.5,31.9-13.3,43.4-1.9l207.4,207.4C803.4,502.1,802.5,521.5,790,534z"/>
		<path style="fill-rule:evenodd;clip-rule:evenodd;" d="M771.2,544H252.8c-15.9,0-28.8-14.3-28.8-32s12.9-32,28.8-32h518.4
			c15.9,0,28.8,14.3,28.8,32S787.1,544,771.2,544z"/>
		<path style="fill-rule:evenodd;clip-rule:evenodd;" d="M541.1,738.9c-12.5-12.5-13.3-31.9-1.9-43.4l207.4-207.4
			c11.5-11.5,30.9-10.6,43.4,1.9c12.5,12.5,13.3,31.9,1.9,43.4L584.5,740.7C573.1,752.2,553.6,751.4,541.1,738.9z"/>
	</g>
</g>
<g id="图层_3" style="display:none;">
	<g style="display:inline;">
		<path style="fill-rule:evenodd;clip-rule:evenodd;" d="M672.5,704H799v64H672.5V704z"/>
		<path style="fill-rule:evenodd;clip-rule:evenodd;" d="M673.5,576H800v64H673.5V576z"/>
		<path style="fill-rule:evenodd;clip-rule:evenodd;" d="M673.1,448h126.5v64H673.1V448z"/>
	</g>
	<g style="display:inline;">
		<path style="fill-rule:evenodd;clip-rule:evenodd;" d="M448,832h126.5v64H448V832z"/>
		<path style="fill-rule:evenodd;clip-rule:evenodd;" d="M448.5,704H575v64H448.5V704z"/>
		<path style="fill-rule:evenodd;clip-rule:evenodd;" d="M449.5,576H576v64H449.5V576z"/>
		<path style="fill-rule:evenodd;clip-rule:evenodd;" d="M449.1,448h126.5v64H449.1V448z"/>
	</g>
	<g style="display:inline;">
		<path style="fill-rule:evenodd;clip-rule:evenodd;" d="M224,832h126.5v64H224V832z"/>
		<path style="fill-rule:evenodd;clip-rule:evenodd;" d="M224.5,704H351v64H224.5V704z"/>
		<path style="fill-rule:evenodd;clip-rule:evenodd;" d="M225.5,576H352v64H225.5V576z"/>
		<path style="fill-rule:evenodd;clip-rule:evenodd;" d="M225.1,448h126.5v64H225.1V448z"/>
	</g>
	<g style="display:inline;">
		<path style="fill-rule:evenodd;clip-rule:evenodd;" d="M322.7,0h26.7C386.2,0,416,28.7,416,64c0,35.3-29.8,64-66.7,64h-26.7
			c-36.8,0-66.7-28.7-66.7-64C256,28.7,285.8,0,322.7,0z"/>
		<path style="fill-rule:evenodd;clip-rule:evenodd;" d="M674.7,0h26.7C738.2,0,768,28.7,768,64c0,35.3-29.8,64-66.7,64h-26.7
			c-36.8,0-66.7-28.7-66.7-64C608,28.7,637.8,0,674.7,0z"/>
	</g>
	<g style="display:inline;">
		<path style="fill-rule:evenodd;clip-rule:evenodd;" d="M96,320h832v64H96V320z"/>
		<path style="fill-rule:evenodd;clip-rule:evenodd;fill:#8BC271;" d="M160,160h704v160H160V160z"/>
		<g>
			<path d="M864,160v800H160V160H864 M872.5,96H151.5C120.8,96,96,121.2,96,152.2v815.5c0,31.1,24.8,56.2,55.5,56.2h721.1
				c30.6,0,55.5-25.2,55.5-56.2V152.2C928,121.2,903.2,96,872.5,96L872.5,96z"/>
		</g>
	</g>
</g>
<g id="图层_4">
	<g>
		<path style="fill-rule:evenodd;clip-rule:evenodd;" d="M64,64c17.7,0,32,14.3,32,32v832c0,17.7-14.3,32-32,32
			c-17.7,0-32-14.3-32-32V96C32,78.3,46.3,64,64,64z"/>
		<path style="fill-rule:evenodd;clip-rule:evenodd;" d="M63,896H961c17.1,0,31,14.3,31,32c0,17.7-13.9,32-31,32H63
			c-17.1,0-31-14.3-31-32C32,910.3,45.9,896,63,896z"/>
		<g>
			<path style="fill-rule:evenodd;clip-rule:evenodd;fill:#EFEFEF;" d="M283.3,64h585.5C936.8,64,992,121.3,992,192v512
				c0,70.7-55.2,128-123.3,128H283.3C215.2,832,160,774.7,160,704V192C160,121.3,215.2,64,283.3,64z"/>
		</g>
		<g>
			<path d="M868.7,128c32.7,0,59.3,28.7,59.3,64v512c0,35.3-26.6,64-59.3,64H283.3c-32.7,0-59.3-28.7-59.3-64V192
				c0-35.3,26.6-64,59.3-64H868.7 M868.7,64H283.3C215.2,64,160,121.3,160,192v512c0,70.7,55.2,128,123.3,128h585.5
				c68.1,0,123.3-57.3,123.3-128V192C992,121.3,936.8,64,868.7,64L868.7,64z"/>
		</g>
	</g>
	<g>
		<path style="fill-rule:evenodd;clip-rule:evenodd;" d="M188.8,695.7l250.1-250.1c11.5-11.5,30.2-11.5,41.7,0
			c11.5,11.5,11.5,30.2,0,41.7L230.4,737.4c-11.5,11.5-30.2,11.5-41.7,0C177.3,725.9,177.3,707.2,188.8,695.7z"/>
		<path style="fill-rule:evenodd;clip-rule:evenodd;" d="M438.8,445.7c11.5-11.5,30.2-11.5,41.7,0l125,125
			c11.5,11.5,11.5,30.2,0,41.7c-11.5,11.5-30.2,11.5-41.7,0l-125-125C427.3,475.8,427.3,457.2,438.8,445.7z"/>
		<path style="fill-rule:evenodd;clip-rule:evenodd;" d="M563.9,570.7L814,320.6c11.5-11.5,30.2-11.5,41.7,0s11.5,30.2,0,41.7
			L605.6,612.4c-11.5,11.5-30.2,11.5-41.7,0C552.4,600.9,552.4,582.2,563.9,570.7z"/>
	</g>
</g>
</svg>
