<?xml version="1.0" encoding="utf-8"?>
<!-- Generator: Adobe Illustrator 22.1.0, SVG Export Plug-In . SVG Version: 6.00 Build 0)  -->
<svg version="1.1" id="图层_1" xmlns="http://www.w3.org/2000/svg" xmlns:xlink="http://www.w3.org/1999/xlink" x="0px" y="0px"
	 viewBox="0 0 1024 1024" style="enable-background:new 0 0 1024 1024;" xml:space="preserve">
<g id="group6">
	<path style="fill:#666666;" d="M652.4,680.1h110.7v56H652.4V680.1z"/>
	<path style="fill:#666666;" d="M653.3,568H764v56H653.3V568z"/>
	<path style="fill:#666666;" d="M652.9,456h110.7v56H652.9V456z"/>
</g>
<g id="group5">
	<path style="fill:#666666;" d="M456,792.1h110.7v56H456V792.1z"/>
	<path style="fill:#666666;" d="M456.4,680.1h110.7v56H456.4V680.1z"/>
	<path style="fill:#666666;" d="M457.3,568H568v56H457.3V568z"/>
	<path style="fill:#666666;" d="M456.9,456h110.7v56H456.9V456z"/>
</g>
<g id="group3">
	<path style="fill:#666666;" d="M259.9,792.1h110.7v56H259.9V792.1z"/>
	<path style="fill:#666666;" d="M260.4,680.1h110.7v56H260.4V680.1z"/>
	<path style="fill:#666666;" d="M261.2,568h110.7v56H261.2V568z"/>
	<path style="fill:#666666;" d="M260.9,456h110.7v56H260.9V456z"/>
</g>
<g id="group2">
	<path style="fill:#666666;" d="M346.3,64h23.4c32.2,0,58.3,25.1,58.3,56s-26.1,56-58.4,56h-23.4c-32.2,0-58.4-25.1-58.4-56
		C287.9,89.1,314,64,346.3,64z"/>
	<path style="fill:#666666;" d="M654.3,64h23.4c32.2,0,58.3,25.1,58.3,56s-26.1,56-58.4,56h-23.4c-32.2,0-58.4-25.1-58.4-56
		C596,89.1,622,64,654.3,64z"/>
</g>
<g id="group1">
	<path id="green" style="fill:#8BC271;" d="M203.9,204H820v140H203.9V204z"/>
	<path style="fill:#666666;" d="M827.4,148H196.5c-26.9,0-48.6,22.1-48.6,49.2V344v56v510.8c0,27.2,21.7,49.2,48.6,49.2h631
		c26.8,0,48.6-22.1,48.6-49.2V197.2C876,170.1,854.3,148,827.4,148z M203.9,204H820v140H203.9V204z M203.9,904.1V400H820v504H203.9z
		"/>
</g>
</svg>
