<?xml version="1.0" encoding="utf-8"?>
<!-- Generator: Adobe Illustrator 22.1.0, SVG Export Plug-In . SVG Version: 6.00 Build 0)  -->
<svg version="1.1" id="图层_1" xmlns="http://www.w3.org/2000/svg" xmlns:xlink="http://www.w3.org/1999/xlink" x="0px" y="0px"
	 viewBox="0 0 1024 1024" style="enable-background:new 0 0 1024 1024;" xml:space="preserve">
<path class="st0" d="M695.4,926.4L588.3,737.9l107.1-188.5h214.1l107.1,188.5L909.5,926.4L695.4,926.4L695.4,926.4z"/>
<path d="M507.4,737.9c10.5,0,19,8.5,19,19s-8.5,19-19,19s-19-8.5-19-19C488.3,746.4,496.9,737.9,507.4,737.9z"/>
<path d="M507.4,852.1c10.5,0,19,8.5,19,19s-8.5,19-19,19s-19-8.5-19-19C488.3,860.6,496.9,852.1,507.4,852.1z"/>
<path d="M507.4,527c-41.3,0-81.2-15-112.1-42.3c-7.3-6.4-8-17.4-1.6-24.7c6.4-7.3,17.4-8,24.7-1.6c24.6,21.7,56.2,33.6,89,33.6
	c31.9,0,62.8-11.3,87.1-31.9c7.4-6.3,18.4-5.3,24.7,2c6.3,7.4,5.3,18.4-2,24.7C586.5,512.7,547.5,527,507.4,527z"/>
<path d="M507.4,622.1c-70.8,0-137.3-27.6-187.4-77.6c-50-50-77.6-116.6-77.6-187.4S270,219.9,320,169.8s116.6-77.6,187.4-77.6
	s137.3,27.6,187.4,77.6c50,50,77.6,116.6,77.6,187.4s-27.6,137.3-77.6,187.4C644.7,594.6,578.1,622.1,507.4,622.1z M507.4,127.2
	c-126.8,0-230,103.2-230,230s103.2,230,230,230s230-103.2,230-230S634.2,127.2,507.4,127.2z"/>
<path d="M408.7,585.7c-160.5,47.1-262.1,192.2-262.9,342.6c0,0.2-0.1,0.3-0.1,0.5c0,0.1,0.1,0.2,0.1,0.3c0,0.4-0.1,0.7-0.1,1.1h0.3
	c0.8,9.4,8.6,17,18.4,17s17.7-7.5,18.4-17h0.3c0-183.8,156-325.6,343.3-325.6l0,0 M869,928.8c0-0.2-0.1-0.4-0.1-0.6
	c-0.7-109.7-56.4-222.8-150.6-289l-0.2,0.3c-3-2-6.4-3.5-10.3-3.5c-10.3,0-18.7,8.2-18.7,18.3c0,5.8,2.8,10.7,7.1,14.1l-0.2,0.3
	c84.9,59.6,135.6,151.3,135.6,261.5h0.3c0.7,9.4,8.6,17,18.4,17c9.8,0,17.7-7.5,18.4-17h0.3c0-0.4-0.1-0.7-0.1-1.1
	C868.9,929,869,928.9,869,928.8L869,928.8z"/>
</svg>
