<?xml version="1.0" encoding="utf-8"?>
<!-- Generator: Adobe Illustrator 22.1.0, SVG Export Plug-In . SVG Version: 6.00 Build 0)  -->
<svg version="1.1" xmlns="http://www.w3.org/2000/svg"
	 viewBox="0 0 1024 1024">
<path class="st0" id="certification_x5F_checked" d="M780.7,145.1H134.6c-39.6,0-71.8,32.1-71.8,71.8v458.2
	c0,39.6,32.1,80.2,71.8,80.2h646.1c39.6,0,71.8-40.6,71.8-80.2V216.9C852.5,177.2,820.4,145.1,780.7,145.1z M299.7,285.5
	c43.6,0,79,35.9,79,80.2c0,44.3-35.4,80.2-79,80.2c-43.6,0-79-35.9-79-80.2C220.8,321.4,256.1,285.5,299.7,285.5z M143,606.4
	c9.7-79.2,76.2-140.4,156.7-140.4s147,61.3,156.7,140.4H143z M773.5,528.3c0,9.9-8,17.9-17.9,17.9H534.8c-9.9,0-17.9-8-17.9-17.9
	v-4.2c0-9.9,8-17.9,17.9-17.9h220.8c9.9,0,17.9,8,17.9,17.9V528.3z M773.5,448.1c0,9.9-8,17.9-17.9,17.9H534.8
	c-9.9,0-17.9-8-17.9-17.9v-4.2c0-9.9,8-17.9,17.9-17.9h220.8c9.9,0,17.9,8,17.9,17.9V448.1z M773.5,367.8c0,9.9-8,17.9-17.9,17.9
	H534.8c-9.9,0-17.9-8-17.9-17.9v-4.2c0-9.9,8-17.9,17.9-17.9h220.8c9.9,0,17.9,8,17.9,17.9V367.8z"/>
<path class="st1" id="certification" d="M816.6,593.8C737.3,593.8,673,658,673,737.3s64.3,143.6,143.6,143.6
	c79.3,0,143.6-64.3,143.6-143.6S895.9,593.8,816.6,593.8z M911.8,704.1L810.3,805.6c-7,7-18.4,7-25.4,0l-63.5-63.5
	c-7-7-7-18.4,0-25.4c7-7,18.4-7,25.4,0l50.8,50.8l88.8-88.8c7-7,18.4-7,25.4,0C918.8,685.7,918.8,697.1,911.8,704.1z"/>
</svg>
