<?xml version="1.0" encoding="utf-8"?>
<!-- Generator: Adobe Illustrator 22.1.0, SVG Export Plug-In . SVG Version: 6.00 Build 0)  -->
<svg version="1.1" id="图层_2" xmlns="http://www.w3.org/2000/svg" xmlns:xlink="http://www.w3.org/1999/xlink" x="0px" y="0px"
	 viewBox="0 0 1024 1024" style="enable-background:new 0 0 1024 1024;" xml:space="preserve">
<path style="fill:#FFC424;" d="M357.7,775.6c-8.7,0-17.2-4-22.7-11.6c-9.1-12.5-6.2-30,6.3-39.1l152.6-110.2
	c10.5-7.6,24.8-7.8,35.6-0.5l70.7,48.1l-21.6-84c-3.1-12.1,1.3-24.8,11.3-32.4l141.7-107.4c12.3-9.3,29.9-6.9,39.2,5.4
	c9.3,12.3,6.9,29.9-5.4,39.2L637,580.5l33.9,132.1c3.2,12.6-1.6,25.6-12.2,33c-10.6,7.5-24.5,7.6-35.2,0.3l-111-75.5l-138.4,99.9
	C369.2,773.9,363.4,775.6,357.7,775.6z M398.9,673.2c-3,0-6.1-0.5-9.1-1.5c-14.6-5-22.4-20.9-17.4-35.6c7.9-23,12.6-40.9,15.3-52.9
	l-119.5-73.5c-11.3-6.9-16.9-20.2-14-33.1c2.9-12.9,13.7-22.6,26.8-24l156-17.4l50.4-90.1c1.3-2.4,3-4.6,4.9-6.6
	c2.4-2.4,5.2-4.3,8.2-5.6c3.7-1.7,7.6-2.5,11.5-2.5c0,0,0,0,0.1,0c3.8,0,7.7,0.8,11.4,2.4c3.1,1.4,6,3.3,8.4,5.8
	c1.9,1.9,3.5,4.1,4.8,6.5l49.4,88.3c15.4,0,38.8-0.1,56.9-0.1c0,0,0.1,0,0.1,0c15.4,0,27.9,12.5,28,27.9c0.1,15.5-12.4,28-27.9,28.1
	c-26.2,0.1-63.3,0.2-71.7,0.2c0,0,0,0-0.1,0c-11.2,0-21.5-6.1-27-15.8L512,415.7l-32.4,58c-4.9,8.7-13.7,14.6-23.6,15.7l-96.5,10.7
	l72.3,44.4c10.6,6.5,16.3,18.8,14.4,31.1c-1.2,7.7-6.2,36-20.8,78.6C421.4,665.9,410.5,673.2,398.9,673.2z"/>
<path style="fill:#FFC424;" d="M772.6,937.8c-3.8,0-7.6-0.8-11.2-2.5L512,818.8L262.6,935.4c-8.7,4.1-18.9,3.1-26.7-2.6
	c-7.8-5.6-11.8-15.1-10.6-24.6L259.4,636L71.2,435.7c-6.6-7-8.8-17-5.9-26.2c3-9.1,10.7-15.9,20.1-17.8L355.9,340l133-240.3
	c4.6-8.4,13.5-13.6,23.1-13.6c9.6,0,18.4,5.2,23.1,13.6l133,240.3l270.5,51.8c9.4,1.8,17.2,8.6,20.1,17.8c3,9.1,0.7,19.2-5.9,26.2
	L764.6,636l34.2,272.2c1.2,9.5-2.9,18.9-10.6,24.6C783.5,936.1,778.1,937.8,772.6,937.8z M142.4,434.6l163.9,174.4
	c5.4,5.7,7.9,13.5,6.9,21.3l-29.8,237.2l217.3-101.6c7.1-3.3,15.2-3.3,22.3,0l217.3,101.6l-29.8-237.2c-1-7.8,1.6-15.6,6.9-21.3
	l163.9-174.4L646,389.5c-7.7-1.5-14.3-6.3-18.1-13.1L512,166.9L396.1,376.4c-3.8,6.8-10.4,11.7-18.1,13.1L142.4,434.6z"/>
</svg>
