<?xml version="1.0" standalone="no"?><!DOCTYPE svg PUBLIC "-//W3C//DTD SVG 1.1//EN" "http://www.w3.org/Graphics/SVG/1.1/DTD/svg11.dtd"><svg class="icon" width="200px" height="200.00px" viewBox="0 0 1024 1024" version="1.1" xmlns="http://www.w3.org/2000/svg"><path d="M509.8 659.6C316.6 822.7 355.1 742 417.2 586c-141.4-90.5-137.3-129.5 30.3-120 54.2-215.3 72.7-213.4 125.7 0.4 181.1-9.5 176.6 30 34.7 119.6 61.2 156.3 111.1 242.5-98.1 73.6z" fill="#E5E5E5" /><path d="M890.4 421c-0.1 0-0.1 0 0 0-6-17.8-21.2-30.7-39.7-33.5L648 356.2l-90.8-194.4c-8.1-17.4-25.8-28.7-45-28.7h-0.1c-19.2 0-36.9 11.2-45.1 28.6L401.7 300h53.8L511 182.4c0.2-0.4 0.6-0.7 1-0.7 0.5 0 0.9 0.3 1.1 0.7l96.3 206.1c3.4 7.4 10.3 12.5 18.3 13.8l215.5 33.3c0.4 0.1 0.8 0.4 0.9 0.8 0.1 0.4 0 0.9-0.3 1.2L687 597.9c-5.4 5.5-7.9 13.3-6.6 20.9l35.8 222.1c0.3 1.6 0.7 3.1 1.2 4.6 0 0.1 0.1 0.3 0.1 0.5 0 0.7-0.5 1.2-1.2 1.2h-0.5c-0.1 0-0.4 0-0.7-0.2L522.8 740.5c-7.3-4.1-16.2-4.1-23.5 0l-192.7 106c-0.4 0.2-0.9 0.2-1.3-0.1-0.4-0.3-0.6-0.7-0.5-1.1l37.4-227c1.2-7.6-1.2-15.4-6.6-20.9L179.1 436.2c-0.3-0.3-0.4-0.7-0.2-1.1 0.1-0.4 0.5-0.7 1-0.8l141-21.3v-49.2l-148.3 22.4c-18.6 2.8-33.8 15.6-39.8 33.3-6 17.8-1.6 37.2 11.5 50.7l148 152.3-35.4 214.9c-3.1 18.7 5 37.8 20.4 48.8 15.5 10.9 36.2 12.1 52.8 3l181-99.6 180.6 100.2 0.2 0.1c7.4 4 15.7 6.1 24 6.1h0.5c27.5 0 49.8-22.4 49.8-49.8 0-5.1-0.8-10.1-2.2-14.9l-33.5-208 148.4-151.7c12.9-13.5 17.4-32.9 11.5-50.6z" fill="#777777" /></svg>