<?xml version="1.0" standalone="no"?><!DOCTYPE svg PUBLIC "-//W3C//DTD SVG 1.1//EN" "http://www.w3.org/Graphics/SVG/1.1/DTD/svg11.dtd">
<svg class="icon" width="200px" height="200.00px" viewBox="0 0 1024 1024" version="1.1" xmlns="http://www.w3.org/2000/svg">
    <path fill="#E5E5E5" d="M307.3 284.6h408.4c50.1 0 90.7 40.6 90.7 90.7v181.5c0 50.1-40.6 90.7-90.7 90.7H307.3c-50.1 0-90.7-40.6-90.7-90.7V375.4c0-50.1 40.6-90.8 90.7-90.8z" />
    <path fill="#777777" d="M352.7 375.4h317.6c12.5 0 22.7 10.2 22.7 22.7s-10.2 22.7-22.7 22.7H352.7c-12.5 0-22.7-10.2-22.7-22.7 0-12.6 10.2-22.7 22.7-22.7zM352.7 488.8h317.6c12.5 0 22.7 10.2 22.7 22.7s-10.2 22.7-22.7 22.7H352.7c-12.5 0-22.7-10.2-22.7-22.7s10.2-22.7 22.7-22.7z"  />
    <path fill="#777777" d="M420.8 854.1h-11.1c-7.7 0-13.9-6.2-13.9-13.9V818c0-7.7 6.2-13.9 13.9-13.9 3.1 0 6.1-1 8.5-2.9 10.9-8.5 29.9-24.8 43.5-36.5 13.1-11.2 26.7-22.9 37.3-31.6 18.5-15.1 25.9-19.8 36-19.8h212.1c69.1 0 125-56 125-125V343.9c0-69.1-56-125-125-125H275.9c-69.1 0-125 56-125 125v244.4c0 69.1 56 125 125 125h87.2c7.7 0 13.9 6.2 13.9 13.9v22.2c0 7.7-6.2 13.9-13.9 13.9h-87.2c-96.7 0-175-78.4-175-175V343.9c0-96.7 78.4-175 175-175h471.3c96.7 0 175 78.4 175 175v244.4c0 96.7-78.4 175-175 175h-201c-3.1 0-6.1 1-8.5 2.9-10.8 8.5-29.8 24.7-43.3 36.3-13.1 11.3-26.7 22.9-37.4 31.7-18.7 15.2-26.1 19.9-36.2 19.9z"  /></svg>