<?xml version="1.0" standalone="no"?><!DOCTYPE svg PUBLIC "-//W3C//DTD SVG 1.1//EN" "http://www.w3.org/Graphics/SVG/1.1/DTD/svg11.dtd"><svg class="icon" width="200px" height="200.00px" viewBox="0 0 1024 1024" version="1.1" xmlns="http://www.w3.org/2000/svg"><path d="M784.5 207c-40.1-37-86.6-62.7-138.1-76.7C459.1 79.4 263 203.2 203.6 407.7l-5.7-1.5c-6.5-1.8-13.2-2.7-19.8-2.7-30.8 0-57.2 19.5-64.4 47.5L67.4 629.3c-4.2 15.8-1.9 32.7 6.6 47.5 9.4 16.6 25.7 29 44.6 34.2l10.5 2.9c6.4 1.7 13.1 2.6 19.7 2.6 30.7 0 57.3-19.6 64.5-47.6l46.4-178.2c4.6-18.1 0.6-36.6-9.5-51.8 0.7-1.5 1.3-3.1 1.7-4.7 47.5-182.6 218.2-295.1 380.8-250.9 43.3 11.7 82.4 33.4 116.1 64.4 11 10.1 27.9 9.2 37.8-2.1 9.8-11.2 8.9-28.5-2.1-38.6zM207.9 476.7l-46.3 178.2c-1.3 5.1-10.8 8-18.6 6l-10.6-3c-5.3-1.5-9.8-4.8-12.1-8.7-0.9-1.5-1.8-3.8-1.2-5.9l46.4-178.4c1-3.8 6.4-6.6 12.6-6.6 1.9 0 3.9 0.3 6.1 0.9l10.3 2.7c9.1 2.5 14.6 10 13.4 14.8zM904.2 598.5l-8.1-2.2c16.8-73.1 14.6-148.3-6.4-218.5-4.3-14.4-19.4-22.5-33.4-18.2-14.2 4.4-22.1 19.8-17.8 34.2 19.3 64.4 20.3 133.8 2.8 200.9-0.6 2.3-0.9 4.7-0.9 7-15 8.3-26.3 22-30.6 38.8l-46.3 178.4c-4.5 17.5-1.1 36.3 9.3 51.9 9.8 14.5 24.7 25.1 41.8 29.7l10.7 3c6.4 1.7 13 2.6 19.5 2.6 30.8 0 57.3-19.5 64.5-47.5l46.3-178.2c9.1-34.9-13.9-71.5-51.4-81.9z m-0.3 67.8l-46.4 178.3c-1.3 5-11.2 7.9-18.4 6l-10.7-3c-4.9-1.4-9.1-4.2-11.5-7.9-0.9-1.4-2.4-4.1-1.7-6.8l46.3-178.4c1-3.8 6.4-6.6 12.6-6.6 2 0 4 0.3 6.1 0.8l10.2 2.7c9.3 2.7 14.8 10 13.5 14.9z" fill="#777777" /><path d="M564 250.1c144.9 0 262.4 117.5 262.4 262.4 0 144.9-117.5 262.4-262.4 262.4-144.9 0-262.4-117.5-262.4-262.4 0-144.9 117.5-262.4 262.4-262.4z" fill="#E5E5E5" /></svg>