<?xml version="1.0" encoding="utf-8"?>
<!-- Generator: Adobe Illustrator 22.1.0, SVG Export Plug-In . SVG Version: 6.00 Build 0)  -->
<svg version="1.1" xmlns="http://www.w3.org/2000/svg" xmlns:xlink="http://www.w3.org/1999/xlink" x="0px" y="0px"
	 viewBox="0 0 1024 1024" style="enable-background:new 0 0 1024 1024;" xml:space="preserve">
<g id="图层_2">
	<path fill="#FFDA81" class="st0" d="M512.5,266.7c100.4,0,194.7,39,265.7,109.9c0.1,0.1,0.2,0.2,0.2,0.3c73.9-34.6,80.9-54,81.4-55.5V64.2
		c0-0.1-0.1-0.2-0.2-0.2H165.4c-0.1,0-0.2,0.1-0.2,0.2v260.5c0.7,1.9,8.9,20.7,80.1,53.5c0.5-0.5,1-1,1.5-1.6
		C317.8,305.7,412.1,266.7,512.5,266.7z"/>
	<path fill="#666666" class="st1" d="M859.6,6.6H165.4c-31.8,0-57.6,25.8-57.6,57.5v260.9c0,39.1,41.9,67.2,73.4,84.9c7.9,4.4,16.5,8.9,25.8,13.5
		c-45.6,63.3-70.2,139.1-70.2,218.6c0,100.3,39.1,194.5,110.1,265.4s165.3,109.9,265.7,109.9s194.7-39,265.7-109.9
		c71-70.9,110.1-165.2,110.1-265.4c0-80.2-25-156.5-71.3-220.1c9.8-4.9,18.8-9.7,27.1-14.4c31.4-18,73.1-46.5,73.1-86V64.2
		C917.2,32.4,891.4,6.6,859.6,6.6z M830.9,642c0,175.4-142.8,318.1-318.4,318.1S194.1,817.4,194.1,642c0-73.3,25-140.9,66.8-194.7
		c12.7-16.3,26.9-31.4,42.5-44.9c56-48.8,129.1-78.4,209.1-78.4c79.4,0,152.2,29.2,208,77.4c15.6,13.5,29.9,28.5,42.7,44.7
		C805.6,500.1,830.9,568.2,830.9,642z M859.8,321.3c-0.4,1.5-7.5,21-81.4,55.5c-0.1-0.1-0.2-0.2-0.2-0.3
		c-71-70.9-165.3-109.9-265.7-109.9c-100.4,0-194.7,39-265.7,109.9c-0.5,0.5-1,1-1.5,1.6c-71.2-32.8-79.4-51.6-80.1-53.5V64.2
		c0-0.1,0.1-0.2,0.2-0.2h694.2c0.1,0,0.2,0.1,0.2,0.2V321.3z"/>
	<path fill="#666666" class="st1" d="M367.9,93.1h57.8v173.4h-57.8V93.1z"/>
	<path fill="#666666" class="st1" d="M599.3,93.1h57.8v173.4h-57.8V93.1z"/>
	<path fill="#666666" class="st1" d="M669.7,860.7L512.5,793l-157.2,67.8l21.6-158.8L255.7,583l173.8-30.7l83-138.4l83,138.4L769.3,583L648.1,701.9
		L669.7,860.7z M361.2,615.7l69.2,67.9l-13,95.2l95-41l95,41l-13-95.2l69.2-67.9L564,598.1l-51.5-85.8L461,598.1L361.2,615.7z"/>
</g>
</svg>
