<?xml version="1.0" standalone="no"?><!DOCTYPE svg PUBLIC "-//W3C//DTD SVG 1.1//EN" "http://www.w3.org/Graphics/SVG/1.1/DTD/svg11.dtd"><svg class="icon" width="200px" height="200.00px" viewBox="0 0 1024 1024" version="1.1" xmlns="http://www.w3.org/2000/svg"><path d="M290.25195312 302.1171875h466.69921876c27.15820313 0 49.13085938 21.97265625 49.13085937 49.13085938v343.91601562c0 27.15820313-21.97265625 49.13085938-49.13085938 49.13085938h-466.69921874c-27.15820313 0-49.13085938-21.97265625-49.13085938-49.13085938V351.24804687c0-27.15820313 21.97265625-49.13085938 49.13085937-49.13085937z" fill="#E5E5E5" /><path d="M855.21289063 645.9453125v122.78320313c0 18.6328125-30.41015625 49.13085938-49.13085938 49.13085937H216.51171875c-18.54492188 0-49.13085938-30.5859375-49.13085938-49.13085938v-491.30859374l289.86328126 262.35351562c23.203125 19.42382813 27.15820313 29.1796875 55.63476562 29.1796875s32.34375-9.66796875 55.546875-29.09179688L855.125 277.33203125v245.65429688h49.13085938V272.14648437c0-51.24023438-42.80273438-92.90039063-94.13085938-92.90039062H211.32617187C159.99804687 179.24609375 118.25 220.90625 118.25 272.14648437v501.85546876c0 51.24023438 41.74804688 92.90039063 93.07617188 92.90039062h598.79882812c51.328125 0 94.13085938-41.66015625 94.13085938-92.90039063V645.9453125h-49.04296876z m-24.78515626-417.56835938h0.17578125L530.28125 494.50976562c-12.21679688 14.4140625-27.68554688 11.33789063-34.89257813 1e-8L191.99023437 228.37695312h638.4375z" fill="#777777" /></svg>