<?xml version="1.0" encoding="utf-8"?>
<!-- Generator: Adobe Illustrator 22.1.0, SVG Export Plug-In . SVG Version: 6.00 Build 0)  -->
<svg version="1.1" id="图层_1" xmlns="http://www.w3.org/2000/svg" xmlns:xlink="http://www.w3.org/1999/xlink" x="0px" y="0px"
	 viewBox="0 0 1024 1024" style="enable-background:new 0 0 1024 1024;" xml:space="preserve">
<g>
	<path style="fill:#90B67D;" d="M512,774.8c282.8,0,512,39.2,512,87.6c0,48.4-229.2,87.6-512,87.6C229.2,950,0,910.8,0,862.4
		C0,814.1,229.2,774.8,512,774.8z"/>
	<path style="fill:#CFE4C6;" d="M345.2,685c46.6,27.7,101,43.6,159.2,43.6c172.2,0,311.9-139.3,311.9-311.2
		c0-59-16.5-114.3-45.1-161.3C737.8,424.7,638.8,665.2,345.2,685z"/>
	<path style="fill:#FFFFFF;stroke:#666666;stroke-width:32;stroke-linejoin:round;stroke-miterlimit:10;" d="M774,610
		c60.3,97.2,122.4,197.3,122.4,197.3c8.4,13.5,4.2,31.2-9.3,39.5l-91-11.3l-31.3,86.8c-13.5,8.3-31.2,4.2-39.6-9.3
		c0,0-54.3-87.5-110.6-178.3"/>
	<path style="fill:#FFFFFF;stroke:#666666;stroke-width:32;stroke-linejoin:round;stroke-miterlimit:10;" d="M240.3,604.4
		c-62.6,101.5-129.7,210.2-129.7,210.2c-8.4,13.6-4.2,31.5,9.4,39.9l91.4-11.4l31.5,87.8c13.6,8.4,31.4,4.2,39.8-9.4
		c0,0,55.7-90.3,113-183.2"/>
	<path style="fill:none;stroke:#666666;stroke-width:32;stroke-miterlimit:10;" d="M638.9,629.6l-133.3-94.8l-136.3,90.4l49.2-155.8
		L290.1,367.9l163.7-1.5l57.1-153.1l52,154.9l163.5,6.9l-131.5,97.2L638.9,629.6z"/>
	<path style="fill:#666666;" d="M505.3,106.2c42.1,0,82.9,8.2,121.3,24.5c37.1,15.7,70.4,38.2,99,66.8s51.1,62,66.8,99
		c16.2,38.4,24.5,79.2,24.5,121.3s-8.2,82.9-24.5,121.3c-15.7,37.1-38.2,70.4-66.8,99s-61.9,51.1-99,66.8
		c-38.4,16.2-79.2,24.5-121.3,24.5s-82.9-8.2-121.3-24.5c-37.1-15.7-70.4-38.2-99-66.8s-51.1-62-66.8-99
		c-16.2-38.4-24.5-79.2-24.5-121.3s8.2-82.9,24.5-121.3c15.7-37.1,38.2-70.4,66.8-99s61.9-51.1,99-66.8
		C422.4,114.4,463.2,106.2,505.3,106.2 M505.3,74.2c-189.8,0-343.6,153.8-343.6,343.6s153.8,343.6,343.6,343.6
		s343.6-153.8,343.6-343.6C848.8,228,695,74.2,505.3,74.2L505.3,74.2z"/>
</g>
</svg>
