<?xml version="1.0" standalone="no"?><!DOCTYPE svg PUBLIC "-//W3C//DTD SVG 1.1//EN" "http://www.w3.org/Graphics/SVG/1.1/DTD/svg11.dtd">
<svg class="icon" width="200px" height="200.00px" viewBox="0 0 1024 1024" version="1.1" xmlns="http://www.w3.org/2000/svg">
    <path fill="#777777" d="M511.625 838.53125c-58.03125 0-115.6875-10.40625-171.375-30.9375-50.15625-18.46875-98.53125-45.46875-139.78125-77.90625C161 698.5625 128 662.5625 105.125 625.4375c-23.90625-38.625-36.5625-77.71875-36.5625-113.25 0-46.21875 21.65625-98.71875 60.9375-148.03125l36.65625 29.25C133.4375 434.375 115.4375 476.5625 115.4375 512.1875 115.4375 568.25 159.125 637.4375 229.4375 692.9375c80.8125 63.75 181.03125 98.8125 282.1875 98.8125 100.96875 0 201.46875-35.625 283.03125-100.21875 35.25-27.9375 64.5-59.90625 84.75-92.34375 19.3125-30.9375 29.4375-61.03125 29.4375-86.8125 0-25.875-10.21875-55.96875-29.53125-87-20.25-32.625-49.59375-64.6875-84.75-92.71875C713.09375 267.5 612.59375 231.6875 511.625 231.6875c-76.96875 0-154.3125 20.71875-223.59375 60l-23.0625-40.78125c76.3125-43.21875 161.625-66.09375 246.65625-66.09375 58.125 0 116.0625 10.6875 172.125 31.6875 50.15625 18.84375 98.625 46.21875 140.0625 79.3125 39.375 31.3125 72.375 67.59375 95.4375 104.71875 23.90625 38.53125 36.5625 77.15625 36.5625 111.75 0 34.59375-12.65625 73.21875-36.5625 111.5625-23.0625 37.03125-56.0625 73.125-95.4375 104.34375-41.4375 32.90625-89.90625 60.1875-140.0625 78.9375-56.0625 20.8125-114 31.40625-172.125 31.40625z"  />
    <path fill="#E5E5E5" d="M512.1875 301.625c180.46875 0 326.8125 88.875 326.8125 198.375S692.65625 698.375 512.1875 698.375 185.375 609.5 185.375 500s146.34375-198.375 326.8125-198.375z" />
    <path fill="#777777" d="M512.1875 745.15625c-23.4375 0-46.03125-6.75-67.03125-20.15625-19.5-12.375-36.75-29.8125-51.46875-51.84375-28.96875-43.5-45-100.875-45-161.53125 0-60.65625 15.9375-118.03125 45-161.53125 14.71875-22.03125 31.96875-39.46875 51.46875-51.84375 21.09375-13.40625 43.6875-20.15625 67.03125-20.15625s46.03125 6.75 67.03125 20.15625c19.5 12.375 36.75 29.8125 51.46875 51.84375 28.96875 43.5 45 100.875 45 161.53125 0 60.65625-15.9375 118.03125-45 161.53125-14.71875 22.03125-31.96875 39.46875-51.46875 51.84375-21.09375 13.40625-43.59375 20.15625-67.03125 20.15625z m0-420.09375c-29.34375 0-57.5625 18.1875-79.5 51.09375-23.90625 35.90625-37.125 84-37.125 135.5625s13.125 99.65625 37.125 135.5625c21.9375 32.90625 50.25 51.09375 79.5 51.09375s57.5625-18.1875 79.5-51.09375c23.90625-35.90625 37.125-84 37.125-135.5625s-13.125-99.65625-37.125-135.5625c-21.9375-33-50.15625-51.09375-79.5-51.09375z"  />
</svg>