<?xml version="1.0" encoding="utf-8"?>
<!-- Generator: Adobe Illustrator 22.1.0, SVG Export Plug-In . SVG Version: 6.00 Build 0)  -->
<svg version="1.1" id="图层_8" xmlns="http://www.w3.org/2000/svg" xmlns:xlink="http://www.w3.org/1999/xlink" x="0px" y="0px"
	 viewBox="0 0 1024 1024" style="enable-background:new 0 0 1024 1024;" xml:space="preserve">
<path style="fill-rule:evenodd;clip-rule:evenodd;fill:none;stroke:#666666;stroke-width:64;stroke-miterlimit:10;" d="M647.6,107.1
	c129.5,0,234.4,110.4,234.4,246.7c0,100.3-56.9,186.4-138.6,225c138.5,63.4,237.7,203.9,248,370.3"/>
<path style="fill-rule:evenodd;clip-rule:evenodd;fill:#E5E5E5;" d="M594.7,949.1c24.6-39.3,38.8-85.8,38.8-135.7
	c0-141.5-114.7-256.2-256.2-256.2S121.1,671.9,121.1,813.5c0,49.8,14.2,96.3,38.8,135.7H594.7z"/>
<path style="fill-rule:evenodd;clip-rule:evenodd;fill:none;stroke:#666666;stroke-width:64;stroke-miterlimit:10;" d="M34.9,942.1
	c-1.6-13.5-2.4-27.2-2.4-41.1c0-190.4,154.4-344.8,344.8-344.8c190.4,0,344.8,154.4,344.8,344.8c0,15.1-1,30-2.9,44.6"/>
<path style="fill-rule:evenodd;clip-rule:evenodd;fill:#E5E5E5;" d="M377.3,191.5c91.6,0,165.8,74.2,165.8,165.8
	c0,91.6-74.2,165.8-165.8,165.8c-91.6,0-165.8-74.2-165.8-165.8C211.5,265.7,285.8,191.5,377.3,191.5z"/>
<g>
	<path style="fill:#666666;" d="M377.3,138.9c51.4,0,99.6,20,135.9,56.3c36.3,36.3,56.3,84.6,56.3,135.9c0,51.4-20,99.6-56.3,135.9
		c-36.3,36.3-84.6,56.3-135.9,56.3s-99.6-20-135.9-56.3c-36.3-36.3-56.3-84.6-56.3-135.9c0-51.3,20-99.6,56.3-135.9
		C277.7,158.9,326,138.9,377.3,138.9 M377.3,74.9c-141.5,0-256.2,114.7-256.2,256.2c0,141.5,114.7,256.2,256.2,256.2
		s256.2-114.7,256.2-256.2C633.6,189.6,518.8,74.9,377.3,74.9L377.3,74.9z"/>
</g>
</svg>
