<?xml version="1.0" encoding="utf-8"?>
<!-- Generator: Adobe Illustrator 22.1.0, SVG Export Plug-In . SVG Version: 6.00 Build 0)  -->
<svg version="1.1" xmlns="http://www.w3.org/2000/svg" xmlns:xlink="http://www.w3.org/1999/xlink" x="0px" y="0px"
	 viewBox="0 0 1024 1024" style="enable-background:new 0 0 1024 1024;" xml:space="preserve">
<path class="st0" d="M722.5,505.9l186.8,125.6c17.2,11.6,21.8,34.9,10.2,52.1L794,870.5c-11.6,17.2-34.9,21.8-52.1,10.2L555.1,755.1
	c-17.2-11.6-21.8-34.9-10.2-52.1l125.6-186.8C682,498.9,705.3,494.4,722.5,505.9z"/>
<path class="st1" d="M755.5,90.4L755.5,90.4c-2.1-2.4-4.5-4.3-7.1-5.7C730,67,706.1,57,681.3,57H343.6c-24.8,0-48.7,10-67.1,27.7
	c-2.6,1.4-5.1,3.3-7.1,5.7l0,0c-15.9,18.7-24.6,42.1-24.6,65.9c0,2.5,0.4,4.9,1.1,7.2L329.5,425c4.6,14.5,16.1,26,30.7,30.7
	c14.8,4.8,31,2.2,43.5-7l61.1-44.8L361.6,757.7c-11.5,16.3-10.2,39,3.9,53.9l116.3,135.1l0.6,0.6c8,8,18.7,12.5,30.1,12.5
	c11.4,0,22-4.4,30.1-12.5l0.6-0.6l116.3-135.1c14.2-14.9,15.5-37.6,3.9-53.9L558.3,398l81.5,53.1c7.9,5.2,17.1,7.8,26.4,7.8
	c5.9,0,11.9-1.1,17.6-3.3c14.3-5.6,25.1-17.7,28.9-32.5l66.7-260.9c0.5-1.9,0.7-3.9,0.7-5.9l0,0C780.1,132.6,771.4,109.2,755.5,90.4
	z M343.4,104.6c0.1,0,0.1,0,0.2,0h337.7c0.1,0,0.1,0,0.2,0c7.4,0,11.8,7.2,10,13.5L529.3,280.3c-9.3,9.3-24.3,9.3-33.6,0L333.4,118
	C331.7,111.8,336,104.6,343.4,104.6z M375.7,412.5c-0.3,0.2-0.7,0.1-0.9,0l-82.3-257.6c0.2-2.6,0.5-5.1,1.1-7.6l120,120l67.7,67.7
	L375.7,412.5z M621.8,782.5L512.5,909.4L403.2,782.5l1-1l108.3-370.7l108.3,370.7L621.8,782.5z M666.6,413.2c-0.2,0.1-0.5,0.2-0.9,0
	l-121.3-79l166-166l20.9-20.9c0.6,2.7,1,5.5,1.1,8.3L666.6,413.2z"/>
</svg>
