<?xml version="1.0" encoding="utf-8"?>
<!-- Generator: Adobe Illustrator 22.1.0, SVG Export Plug-In . SVG Version: 6.00 Build 0)  -->
<svg version="1.1" xmlns="http://www.w3.org/2000/svg" xmlns:xlink="http://www.w3.org/1999/xlink" x="0px" y="0px"
	 viewBox="0 0 1024 1024" style="enable-background:new 0 0 1024 1024;" xml:space="preserve">
<g id="图层_1" style="display:none;">
</g>
<g id="图层_2">
	<path style="fill-rule:evenodd;clip-rule:evenodd;fill:none;stroke:#000000;stroke-width:64;stroke-miterlimit:10;" d="
		M951.5,318.7c6.5,14.7,12.2,29.7,17.2,45.1 M988.2,451.1c2.5,20,3.8,40.3,3.8,60.9c0,265.1-214.9,480-480,480S32,777.1,32,512
		C32,246.9,246.9,32,512,32c79.4,0,154.3,19.3,220.3,53.4"/>
	<g>
		<path style="fill-rule:evenodd;clip-rule:evenodd;" d="M234,490c12.5-12.5,31.9-13.3,43.4-1.9l207.4,207.4
			c11.5,11.5,10.6,30.9-1.9,43.4c-12.5,12.5-31.9,13.3-43.4,1.9L232.1,533.3C220.6,521.9,221.5,502.5,234,490z"/>
		<path style="fill-rule:evenodd;clip-rule:evenodd;" d="M252.8,480h518.4c15.9,0,28.8,14.3,28.8,32c0,17.7-12.9,32-28.8,32H252.8
			c-15.9,0-28.8-14.3-28.8-32C224,494.3,236.9,480,252.8,480z"/>
		<path style="fill-rule:evenodd;clip-rule:evenodd;" d="M482.9,285.1c12.5,12.5,13.3,31.9,1.9,43.4L277.3,535.9
			c-11.5,11.5-30.9,10.6-43.4-1.9c-12.5-12.5-13.3-31.9-1.9-43.4l207.4-207.4C450.9,271.8,470.4,272.6,482.9,285.1z"/>
	</g>
</g>
</svg>
