<?xml version="1.0" encoding="utf-8"?>
<!-- Generator: Adobe Illustrator 22.1.0, SVG Export Plug-In . SVG Version: 6.00 Build 0)  -->
<svg version="1.1" id="图层_1" xmlns="http://www.w3.org/2000/svg" xmlns:xlink="http://www.w3.org/1999/xlink" x="0px" y="0px"
	 viewBox="0 0 1024 1024" style="enable-background:new 0 0 1024 1024;" xml:space="preserve">
<path style="fill:#666666;" d="M333,861.5l-73.1-98.9L146.1,729l85.6-125.6c-10.4-16.1-19.5-33.1-27.3-50.9L64,758.7l165.4,48.7
	l105.4,142.4l132.7-194.9c-18.2-2.5-36.1-6.7-53.6-12.2L333,861.5z"/>
<path style="fill:#666666;" d="M826.6,279c-17.1-41.1-41.5-78-72.6-109.7c-31.1-31.7-67.3-56.6-107.6-74
	c-41.8-18.1-86.2-27.2-131.9-27.2c-45.8,0-90.1,9.1-131.9,27.2c-40.3,17.4-76.6,42.2-107.6,74c-31.1,31.6-55.5,68.5-72.6,109.7
	c-17.7,42.5-26.6,87.7-26.6,134.3s8.9,91.8,26.6,134.3c0.7,1.7,1.4,3.2,2.1,4.9c7.7,17.8,16.8,34.8,27.3,50.9
	c12.5,19.3,26.9,37.3,43.2,53.8c31.1,31.7,67.3,56.5,107.6,74c10.3,4.4,20.6,8.3,31.2,11.7c17.5,5.5,35.4,9.6,53.6,12.2
	c15.5,2.2,31.2,3.3,47.1,3.3c9.1,0,18.1-0.4,27.2-1.1c18.9-1.5,37.5-4.6,55.7-9.3c16.7-4.3,33-9.8,49-16.7
	c40.3-17.4,76.6-42.2,107.6-74c13.1-13.3,25-27.6,35.7-42.7c10.9-15.3,20.4-31.6,28.7-48.6c2.9-6,5.7-12.1,8.2-18.3
	c17.7-42.5,26.6-87.7,26.6-134.3C853.2,366.7,844.2,321.5,826.6,279z M758.2,569.1C716,637.6,646.6,687.1,565.6,702
	c-16.7,3.1-33.7,4.6-51.2,4.6c-2.6,0-5.3-0.1-7.9-0.1c-2-0.1-4-0.1-6-0.3c-19.3-1-38-3.9-56.2-8.4
	c-77.5-19.8-142.6-71.8-180.9-141.1c-9.7-17.6-17.7-36.4-23.8-56c-8.5-27.6-13.1-57-13.1-87.4c0-161.8,129.1-293.5,287.8-293.5
	s287.8,131.6,287.8,293.4c0,36.2-6.5,70.8-18.3,102.9C777.2,534.8,768.5,552.5,758.2,569.1z"/>
<path style="fill:none;stroke:#666666;stroke-width:64;stroke-miterlimit:10;" d="M514.5,259.5c83.3,0,150.9,68.8,150.9,153.7
	s-67.5,153.7-150.9,153.7c-83.3,0-150.9-68.8-150.9-153.7C363.6,328.4,431.2,259.5,514.5,259.5z"/>
<path style="fill:#666666;" d="M691,861.5l73.1-98.9l113.8-33.5l-85.6-125.6c10.4-16.1,19.5-33.1,27.3-50.9L960,758.8l-165.4,48.7
	L689.2,950L556.6,755.1c18.2-2.5,36.1-6.7,53.6-12.2L691,861.5z"/>
</svg>
