<?xml version="1.0" encoding="utf-8"?>
<!-- Generator: Adobe Illustrator 22.1.0, SVG Export Plug-In . SVG Version: 6.00 Build 0)  -->
<svg version="1.1" xmlns="http://www.w3.org/2000/svg" xmlns:xlink="http://www.w3.org/1999/xlink" x="0px" y="0px"
	 viewBox="0 0 1024 1024" style="enable-background:new 0 0 1024 1024;" xml:space="preserve">
<style type="text/css">
	<!-- .st0{display:none;}
	.st1{fill:#FFFFFF;}
	.st2{fill:#CCCCCC;}
	.st3{fill:none;}
	.st4{fill-rule:evenodd;clip-rule:evenodd;fill:#FFFFFF;} -->
</style>
<g>
	<path class="st3" d="M861.7,231.2H162.2c-9.9,0-17.9,8-17.9,17.9v306.6C244.6,637.4,372.5,686.3,512,686.3
		c139.4,0,267.4-48.9,367.7-130.6V249.1C879.6,239.3,871.6,231.2,861.7,231.2z"/>
	<path class="st2" d="M144.3,555.7v218c0,9.9,8,17.9,17.9,17.9h699.5c9.9,0,17.9-8,17.9-17.9v-218
		C779.3,637.4,651.4,686.3,512,686.3C372.5,686.3,244.6,637.4,144.3,555.7z"/>
	<path class="st2" d="M470.7,517.7L184.3,231.2h-22.1c-9.9,0-17.9,8-17.9,17.9v306.6v218c0,9.9,8,17.9,17.9,17.9h699.5
		c9.9,0,17.9-8,17.9-17.9v-218V249.1c0-9.9-8-17.9-17.9-17.9h-22.1L553.2,517.7C530.4,540.4,493.5,540.4,470.7,517.7z"/>
	<path class="st1" d="M957.9,227.1c-6.4-28-24.7-51.5-49.4-64.8c-13.9-7.5-29.9-11.8-46.8-11.8h-22.1H184.3h-22.1c-16.9,0-32.9,4.3-46.8,11.8
		c-24.6,13.3-42.9,36.8-49.4,64.8c-1.6,7.1-2.5,14.4-2.5,22v226.7v297.9c0,54.4,44.3,98.7,98.7,98.7h699.5
		c54.4,0,98.7-44.3,98.7-98.7V475.9V249.1C960.4,241.6,959.5,234.2,957.9,227.1z M839.6,231.2L553.2,517.7
		c-11.4,11.4-26.3,17.1-41.2,17.1c-14.9,0-29.8-5.7-41.2-17.1L184.3,231.2H839.6z M879.6,555.8v218c0,9.9-8,17.9-17.9,17.9H162.2
		c-9.9,0-17.9-8-17.9-17.9v-218V305.4l269.4,269.4c26.3,26.3,61.2,40.7,98.3,40.7c37.1,0,72-14.5,98.3-40.7l269.4-269.4V555.8z"/>
	<path class="st3" d="M512,365.7c80.5,0,145.7,65.2,145.7,145.7c0,80.5-65.2,145.7-145.7,145.7s-145.7-65.2-145.7-145.7
		C366.2,431,431.5,365.7,512,365.7z"/>
	<path class="st1" d="M569.6,428.1L551,544.2c-0.4,2.5-0.6,4.3-0.6,5.1c0,3.8,1.8,5.7,5.4,5.7c5.9,0,12.2-2.8,19.1-8.4c6.9-5.6,12.9-14,18-25
		c5.1-11,7.7-23.9,7.7-38.7c0-24.9-7.5-45.1-22.5-60.5c-15-15.4-34.7-23.1-59-23.1c-28.2,0-51.6,9.8-69.9,29.3
		c-18.4,19.5-27.6,45.5-27.6,78.1c0,31.4,9,56.3,26.9,74.7c17.9,18.4,40.8,27.6,68.5,27.6c13.7,0,26.7-2.3,39-6.9
		c12.3-4.6,24-11.4,35-20.5H622c-12.7,16.2-28.5,28.5-47.3,36.8c-18.8,8.3-38,12.5-57.4,12.5c-33.3,0-61.2-11.3-83.6-33.8
		C411.2,574.5,400,544.8,400,508c0-36.6,10.5-67.4,31.4-92.7c20.9-25.2,50-37.8,87.2-37.8c22.2,0,40.3,4.3,54.4,12.8
		c14.1,8.6,25.8,20.5,35.3,35.8c9.4,15.3,14.1,34.2,14.1,56.8c0,30-8.4,53.6-25.1,70.9c-16.7,17.3-33.5,25.9-50.3,25.9
		c-12.6,0-20.3-5.7-23-17c-6.6,6.5-12.4,10.9-17.2,13.4c-4.8,2.5-10.6,3.7-17.4,3.7c-14.6,0-26.2-5.7-35-17
		c-8.8-11.3-13.2-26.5-13.2-45.5c0-24.4,6.1-46.2,18.4-65.2c12.3-19,27.2-28.5,44.8-28.5c7,0,13.4,1.8,19.1,5.3
		c5.7,3.5,10.6,8.8,14.8,15.8l2.3-16.7H569.6z M471.7,525.7c0,9.2,2,17,5.9,23.3c3.9,6.4,9.1,9.5,15.7,9.5c6.4,0,11.9-2.5,16.8-7.5
		s9.3-15.2,13.4-30.7c4.1-15.5,6.2-30.3,6.2-44.4c0-8.8-1.9-15.9-5.6-21.3c-3.7-5.4-8.7-8.1-15.1-8.1c-11.9,0-21.1,8.4-27.6,25.1
		C474.9,488.5,471.7,506.5,471.7,525.7z"/>
</g>
</svg>
