<?xml version="1.0" encoding="utf-8"?>
<!-- Generator: Adobe Illustrator 22.1.0, SVG Export Plug-In . SVG Version: 6.00 Build 0)  -->
<svg version="1.1" id="图层_2" xmlns="http://www.w3.org/2000/svg" xmlns:xlink="http://www.w3.org/1999/xlink" x="0px" y="0px"
	 viewBox="0 0 1024 1024" style="enable-background:new 0 0 1024 1024;" xml:space="preserve">
<g>
	<path style="fill:#666666;" d="M397.6,482.2l93.3,121L265.1,909.3l-56.3-132.7l-5-11.9l-11.9-5.1L66.6,706.4L397.6,482.2
		 M404.5,438.8L0,712.9l179.4,76.2l78.2,184.4L531,602.8L404.5,438.8L404.5,438.8z"/>
</g>
<g>
	<path style="fill:#666666;" d="M726,525.5l237.4,294l-138.9,18.8l-12.7,1.7l-8,10l-86.5,108L604.8,619L726,525.5 M731.3,481.1
		l-164,126.4L705.5,1024l123.3-154l195.2-26.4L731.3,481.1L731.3,481.1z"/>
</g>
<path style="fill-rule:evenodd;clip-rule:evenodd;fill:#FFFFFF;stroke:#666666;stroke-width:32;stroke-miterlimit:10;" d="
	M906.4,347.6c0,181.9-147.5,329.4-329.4,329.4c-181.9,0-329.4-147.5-329.4-329.4S395,18.2,576.9,18.2
	C758.9,18.2,906.4,165.7,906.4,347.6z"/>
<path style="fill-rule:evenodd;clip-rule:evenodd;fill:none;stroke:#666666;stroke-width:32;stroke-miterlimit:10;" d="M760,347.6
	c0,101.1-81.9,183-183,183s-183-81.9-183-183c0-101.1,81.9-183,183-183S760,246.6,760,347.6z"/>
</svg>
