<?xml version="1.0" encoding="utf-8"?>
<!-- Generator: Adobe Illustrator 22.1.0, SVG Export Plug-In . SVG Version: 6.00 Build 0)  -->
<svg version="1.1" id="图层_2" xmlns="http://www.w3.org/2000/svg" xmlns:xlink="http://www.w3.org/1999/xlink" x="0px" y="0px"
	 viewBox="0 0 1024 1024" style="enable-background:new 0 0 1024 1024;" xml:space="preserve">
<g>
	<path style="fill:#666666;" d="M626.4,482.2l331,224.2l-125.3,53.2l-11.9,5.1l-5,11.9l-56.3,132.7L533.1,603.2L626.4,482.2
		 M619.5,438.8L493,602.8l273.4,370.7l78.2-184.4l179.4-76.2L619.5,438.8L619.5,438.8z"/>
</g>
<g>
	<path style="fill:#666666;" d="M298,525.5L419.2,619L306.7,958l-86.5-108l-8-10l-12.7-1.7L60.6,819.5L298,525.5 M292.7,481.1
		L0,843.6L195.2,870l123.3,154l138.2-416.5L292.7,481.1L292.7,481.1z"/>
</g>
<path style="fill-rule:evenodd;clip-rule:evenodd;fill:#FFFFFF;stroke:#666666;stroke-width:32;stroke-miterlimit:10;" d="
	M447.1,18.2c181.9,0,329.4,147.5,329.4,329.4S629,677.1,447.1,677.1c-181.9,0-329.4-147.5-329.4-329.4S265.1,18.2,447.1,18.2z"/>
<path style="fill-rule:evenodd;clip-rule:evenodd;fill:none;stroke:#666666;stroke-width:32;stroke-miterlimit:10;" d="M447.1,164.6
	c101.1,0,183,81.9,183,183c0,101.1-81.9,183-183,183s-183-81.9-183-183C264,246.6,346,164.6,447.1,164.6z"/>
</svg>
