<?xml version="1.0" encoding="utf-8"?>
<!-- Generator: Adobe Illustrator 22.1.0, SVG Export Plug-In . SVG Version: 6.00 Build 0)  -->
<svg version="1.1" id="图层_1" xmlns="http://www.w3.org/2000/svg" xmlns:xlink="http://www.w3.org/1999/xlink" x="0px" y="0px"
	 viewBox="0 0 1024 1024" style="enable-background:new 0 0 1024 1024;" xml:space="preserve">

<path class="st0" d="M992,617c-13.5,15.5-250.6,287.1-259.9,297.8c-12.1,13.8-35.3,11.7-42.3-8.6c-5.6-16.3-116.6-343.8-126-371.8
	c-6.2-18.4,9.3-35.7,28.2-32.3c21,3.9,362,69.6,386.3,74.7C996.1,580.7,1005.3,601.8,992,617z"/>
<path class="st1" d="M371.8,474.2c15.4,0,27.8,12.5,27.8,27.8c0,15.4-12.5,27.8-27.8,27.8S344,517.4,344,502C344,486.6,356.4,474.2,371.8,474.2z
	"/>
<path class="st1" d="M501.6,474.2c15.4,0,27.8,12.5,27.8,27.8c0,15.4-12.5,27.8-27.8,27.8c-15.4,0-27.8-12.4-27.8-27.8
	C473.8,486.6,486.2,474.2,501.6,474.2z"/>
<path class="st1" d="M631.4,474.2c15.4,0,27.8,12.5,27.8,27.8c0,15.4-12.5,27.8-27.8,27.8c-15.4,0-27.8-12.4-27.8-27.8
	C603.5,486.6,616,474.2,631.4,474.2z"/>
<path class="st1" d="M256,881h-4.7c-30.1,0-54.6-24.5-54.6-54.6V649.2c-66.1-23-111.2-85.5-111.2-156.4c0-37.9,12.4-73.5,36-103
	c20.4-25.6,48.1-44.7,79-54.7c8.1-41.7,29.8-79.7,61.9-108c35.3-31.2,80.8-48.4,128-48.4c33.2,0,65.5,8.5,94.4,24.7
	c36.8-27.9,81.8-43.2,128.1-43.2c51.8,0,101.7,18.9,140.5,53.3c35.3,31.3,59.1,73.3,67.8,119.2c67.4,18.4,115.2,80,115.2,150.9
	c0,76.8-55.7,141.4-129.8,154.1c0,1.2,0,2.3,0,3.5c0,101.7-82.7,184.4-184.4,184.4c-29.8,0-62.4-8.1-91.8-22.9
	c-23.9-12-45-28-60.8-46L256,881z M390.3,213.6c-79.1,0-146.6,59.1-157.1,137.5l-1.6,11.8l-11.6,2.8
	c-58.7,14.4-99.6,66.6-99.6,126.9c0,59.6,40.3,111.6,98.1,126.5l13.1,3.4v203.8c0,9.4,6.7,17.3,15.6,19.2l231.5-135.1l9.3,13.1
	c27.4,38.7,83.7,66.8,134,66.8c82.4,0,149.4-67,149.4-149.4c0-5.2-0.3-10.8-1-17l-2.1-18.4l18.5-1.1
	c64.2-3.7,114.4-56.9,114.4-121.2c0-58.3-41.6-108.5-98.8-119.3l-12.5-2.4l-1.6-12.6C776.9,261.3,701.4,195,612.8,195
	c-42.2,0-83.1,15.2-115.2,42.8l-9.9,8.5l-11-7.1C450.8,222.5,421,213.6,390.3,213.6z"/>
</svg>
