<?xml version="1.0" encoding="utf-8"?>
<!-- Generator: Adobe Illustrator 22.1.0, SVG Export Plug-In . SVG Version: 6.00 Build 0)  -->
<svg version="1.1" id="图层_1" xmlns="http://www.w3.org/2000/svg" xmlns:xlink="http://www.w3.org/1999/xlink" x="0px" y="0px"
	 viewBox="0 0 1024 1024" style="enable-background:new 0 0 1024 1024;" xml:space="preserve">
<path style="fill:#666666;" d="M90.8,848h835.4c16.4,0,29.8,12.5,29.8,28s-13.4,28-29.8,28H90.8C74.4,904,61,891.5,61,876
	S74.4,848,90.8,848z"/>
<path style="fill:#666666;" d="M631.6,176v560h-246V176H631.6 M657.8,120H359.4c-16.4,0-29.8,12.5-29.8,28v616
	c0,15.5,13.4,28,29.8,28h298.4c16.5,0,29.8-12.5,29.8-28V148C687.6,132.5,674.2,120,657.8,120L657.8,120z"/>
<path style="fill:#666666;" d="M295.7,288c9.6,0,18.5,3.3,24.9,9.4c3.9,3.7,8.6,9.9,8.6,18.6v392c0,8.8-4.6,14.9-8.6,18.5
	c-6.5,6.1-15.3,9.5-24.9,9.5H146.5c-9.6,0-18.5-3.3-24.9-9.5c-3.9-3.7-8.6-9.8-8.6-18.5V316c0-8.8,4.6-14.9,8.6-18.6
	c6.5-6.1,15.3-9.4,24.9-9.4H295.7 M295.7,232H146.5C97.1,232,57,269.6,57,316v392c0,46.4,40.1,84,89.5,84h149.2
	c49.4,0,89.5-37.6,89.5-84V316C385.2,269.6,345.1,232,295.7,232L295.7,232z"/>
<path style="fill:#666666;" d="M870.5,399.7c9.6,0,18.8,2.1,25.8,6c4.6,2.5,6.9,5.1,7.6,6.2v311.8c-0.8,1.1-3,3.7-7.6,6.2
	c-7.1,3.9-16.3,6-25.8,6H721.3c-9.6,0-18.8-2.1-25.8-6c-4.6-2.5-6.9-5.1-7.6-6.2V412c0.8-1.1,3-3.7,7.6-6.2c7.1-3.8,16.3-6,25.9-6
	H870.5 M870.5,343.7H721.3c-49.4,0-89.5,30.1-89.5,67.2v313.8c0,37.1,40.1,67.2,89.5,67.2h149.2c49.4,0,89.5-30.1,89.5-67.2V411
	C960,373.8,919.9,343.7,870.5,343.7L870.5,343.7z"/>
</svg>
