<?xml version="1.0" encoding="utf-8"?>
<!-- Generator: Adobe Illustrator 22.1.0, SVG Export Plug-In . SVG Version: 6.00 Build 0)  -->
<svg version="1.1" id="图层_7" xmlns="http://www.w3.org/2000/svg" xmlns:xlink="http://www.w3.org/1999/xlink" x="0px" y="0px"
	 viewBox="0 0 1024 1024" style="enable-background:new 0 0 1024 1024;" xml:space="preserve">
<path style="fill-rule:evenodd;clip-rule:evenodd;fill:#E5E5E5;" d="M189.5,217.2h640c17.7,0,32,13.9,32,31v620.6
	c0,17.1-14.3,31-32,31h-640c-17.7,0-32-13.9-32-31V248.2C157.5,231.1,171.8,217.2,189.5,217.2z"/>
<path style="fill-rule:evenodd;clip-rule:evenodd;fill:#666666;" d="M283.2,509.3c12.5-12.1,32.8-12.1,45.3,0L464.2,641
	c12.5,12.1,12.5,31.8,0,43.9c-12.5,12.1-32.8,12.1-45.3,0L283.2,553.2C270.7,541.1,270.7,521.5,283.2,509.3z"/>
<path style="fill-rule:evenodd;clip-rule:evenodd;fill:#666666;" d="M419,641l271.5-263.3c12.5-12.1,32.8-12.1,45.3,0
	c12.5,12.1,12.5,31.8,0,43.9L464.2,684.9c-12.5,12.1-32.8,12.1-45.3,0C406.5,672.8,406.5,653.1,419,641z"/>
<path style="fill:#666666;" d="M861.5,62.1H728C714.8,25.9,679.3,0,637.5,0h-256c-41.8,0-77.4,25.9-90.5,62.1H157.5
	c-70.7,0-128,55.6-128,124.1v713.7c0,68.5,57.3,124.1,128,124.1h704c70.7,0,128-55.6,128-124.1V186.2
	C989.5,117.6,932.2,62.1,861.5,62.1z M637.5,122.2h-256c-17.6,0-32-13-32-29.1c0-16,14.4-29.1,32-29.1h256c17.6,0,32,13.1,32,29.1
	C669.5,109.1,655.1,122.2,637.5,122.2z M925.5,899.9c0,33.1-28.7,60.1-64,60.1h-704c-35.3,0-64-27-64-60.1V186.2
	c0-33.1,28.7-60.1,64-60.1h134.2c13.7,35.1,48.8,60.1,89.8,60.1h256c41,0,76.1-25,89.8-60.1h134.2c35.3,0,64,27,64,60.1V899.9z"/>
</svg>
