<?xml version="1.0" encoding="utf-8"?>
<!-- Generator: Adobe Illustrator 22.1.0, SVG Export Plug-In . SVG Version: 6.00 Build 0)  -->
<svg version="1.1" id="图层_2_1_" xmlns="http://www.w3.org/2000/svg" xmlns:xlink="http://www.w3.org/1999/xlink" x="0px"
	 y="0px" viewBox="0 0 1024 1024" style="enable-background:new 0 0 1024 1024;" xml:space="preserve">
<path style="fill:#90B67D;" d="M512,720.5c282.8,0,512,54.3,512,121.3S794.8,963.1,512,963.1S0,908.7,0,841.7
	C0,774.8,229.2,720.5,512,720.5z"/>
<path style="fill:#FFFFFF;stroke:#666666;stroke-width:32;stroke-linecap:round;stroke-miterlimit:10;" d="M916.2,505.9
	c0,18.7,0,37.8,0,56.9 M916.2,437.5c0,115.4,0,390.7,0,390.7c0,29.8-24.1,53.9-53.9,53.9H161.7c-29.8,0-53.9-24.1-53.9-53.9v-525
	c0-29.8,24.1-53.9,53.9-53.9h700.6c29.8,0,53.9,24.1,53.9,53.9c0,0,0,56.1,0,131.6"/>
<path style="fill:#CFE4C6;" d="M900.2,828.2V437.5c0-0.5,0-0.9,0.1-1.4c0-0.4-0.1-0.9-0.1-1.4V313.7
	c-33.8,81.6-239.7,524.5-737.3,552.4h699.4C883.2,866.1,900.2,849.1,900.2,828.2z"/>
<path style="fill:#666666;" d="M832.4,232.3H173.9c-7.4,0-13.5,6-13.5,13.5v238.7c0,58,36.6,107.4,88,126.4V684
	c0,33.5,27.1,60.6,60.6,60.6h405.9c33.5,0,60.6-27.1,60.6-60.6v-81.2c41.9-22.8,70.3-67.3,70.3-118.4V245.8
	C845.9,238.3,839.9,232.3,832.4,232.3z M743.6,684.1c0,15.8-12.8,28.6-28.6,28.6H309.1c-15.8,0-28.6-12.8-28.6-28.6v-65.6v-0.1
	h145.3c0,0.3,0,0.6,0,0.9c1,37.6,32,67.9,69.8,67.9h32.8c37.9,0,68.8-30.3,69.8-67.9c0-0.3,0-0.6,0-0.9h128.4h16.9L743.6,684.1
	L743.6,684.1z M457.7,586.4v-1.9c0-20.9,17-37.9,37.9-37.9h32.8c20.9,0,37.9,17,37.9,37.9v1.9v0.9v30.1c0,0.4,0,0.7,0,1.1
	c0,0.3,0,0.6,0,0.9c-1,20-17.6,35.9-37.8,35.9h-32.8c-20.2,0-36.8-16-37.8-35.9c0-0.3,0-0.6,0-0.9c0-0.4,0-0.7,0-1.1v-30.1v-0.9
	H457.7z M813.9,484.5c0,52.1-38.9,95.2-89.2,101.8c-4.4,0.6-9,0.9-13.6,0.9H598.3v-0.9v-1.9c0-38.5-31.4-69.9-69.9-69.9h-32.8
	c-38.5,0-69.9,31.4-69.9,69.9v1.9v0.9H295.2c-4.6,0-9.1-0.3-13.6-0.9c-50.3-6.7-89.2-49.8-89.2-101.8V264.3h621.5V484.5z"/>
<path style="fill:#666666;" d="M533.9,94.7c17.3,0,33.9,7.9,46.8,22.3c13.1,14.6,20.6,34.1,20.6,53.5v62.3h-192V184
	c0-40.4,28.2-89.3,63.2-89.3H533.9 M533.9,62.7h-61.5c-55.8,0-95.2,65.5-95.2,121.3v80.8h256v-94.3
	C633.3,114.7,589.7,62.7,533.9,62.7L533.9,62.7z"/>
</svg>
