<?xml version="1.0" encoding="utf-8"?>
<!-- Generator: Adobe Illustrator 22.1.0, SVG Export Plug-In . SVG Version: 6.00 Build 0)  -->
<svg version="1.1" id="图层_7" xmlns="http://www.w3.org/2000/svg" xmlns:xlink="http://www.w3.org/1999/xlink" x="0px" y="0px"
	 viewBox="0 0 1024 1024" style="enable-background:new 0 0 1024 1024;" xml:space="preserve">
<path fill="#9ECF88" d="M561.5,858.7c23.7-1.6,50.6-3.5,78.4-3.5c30.8,0,57.7,2.3,82.2,7c14,2.7,29,5.7,43.5,8.6
	c19,3.8,38.5,7.8,56,11c-10.7-39.8-22.5-87.7-16.7-130.4c7.7-56,34.8-106.5,58.7-151c20.8-38.7,40.4-75.3,40.4-102.7
	c0-48.9-10.3-96.2-30.5-140.8c-19.6-43.2-47.8-82.1-83.6-115.5c-36-33.5-77.9-59.9-124.7-78.3c-17.1-6.7-34.5-12.3-52.2-16.6
	c-0.3,0-0.5,0-0.8,0c-213.1,0-385.8,163.7-385.8,365.7c0,163.3,113,301.7,268.9,348.6c5.5,0.2,11.1,0.3,16.7,0.3
	C525.7,861.2,543.1,860,561.5,858.7z"/>
<path fill="#333333;" d="M860.4,758.6c13.2-95.9,99.6-181.8,99.6-260.8c0-230.5-200.6-417.3-448-417.3
	c-247.4,0-448,186.8-448,417.3c0,230.5,200.6,417.3,448,417.3c34.2,0,80.3-6,127.9-6c23.8,0,48,1.5,71.2,6
	c59.8,11.5,134.8,28.4,163.2,28.4c5.8,0,9.7-0.7,11-2.3C903.1,927.8,851.4,824.5,860.4,758.6z M358.8,832.4
	c-46.7-18.4-88.7-44.7-124.7-78.3c-35.9-33.4-64-72.3-83.6-115.5c-20.2-44.6-30.5-92-30.5-140.8c0-48.9,10.3-96.2,30.5-140.8
	c19.6-43.2,47.8-82.1,83.6-115.5c36-33.5,77.9-59.9,124.7-78.3c48.5-19.1,100-28.8,153.2-28.8c34.5,0,68.2,4.1,100.9,12.1
	c17.7,4.4,35.2,9.9,52.2,16.6c46.7,18.4,88.7,44.7,124.7,78.3c35.9,33.4,64,72.3,83.6,115.5c20.2,44.6,30.5,92,30.5,140.8
	c0,27.4-19.6,64-40.4,102.7c-23.9,44.5-51,95-58.7,151c-5.9,42.6,6,90.5,16.7,130.4c-17.5-3.3-37-7.2-56-11
	c-14.5-2.9-29.5-5.9-43.5-8.6c-24.5-4.7-51.4-7-82.2-7c-27.8,0-54.7,1.9-78.4,3.5c-18.4,1.3-35.9,2.5-49.5,2.5
	c-5.6,0-11.1-0.1-16.7-0.3C448,859,402.2,849.5,358.8,832.4z"/>
<path fill="#333333;" d="M362.7,393.5h298.7c13.7,0,24.9,11.7,24.9,26.1
	s-11.1,26.1-24.9,26.1H362.7c-13.7,0-24.9-11.7-24.9-26.1S348.9,393.5,362.7,393.5z"/>
<path fill="#333333;" d="M362.7,523.9h298.7c13.7,0,24.9,11.7,24.9,26.1
	c0,14.4-11.1,26.1-24.9,26.1H362.7c-13.7,0-24.9-11.7-24.9-26.1C337.8,535.6,348.9,523.9,362.7,523.9z"/>
</svg>
