<?xml version="1.0" encoding="utf-8"?>
<!-- Generator: Adobe Illustrator 22.1.0, SVG Export Plug-In . SVG Version: 6.00 Build 0)  -->
<svg version="1.1" id="图层_4" xmlns="http://www.w3.org/2000/svg" xmlns:xlink="http://www.w3.org/1999/xlink" x="0px" y="0px"
	 viewBox="0 0 1024 1024" fill="enable-background:new 0 0 1024 1024" xml:space="preserve">
<path fill="#85E4DD" d="M259,118.3c0,0,144.1,14.9,388.5,54.3
	c233.2,37.6,225.9,18.1,277.5-54.3c0,0,83,410-111,407.5c-194-2.6-108.1,28.5-194.2,0c-145.7-48.2-182.2,41.9-194.2,54.3
	C413.4,592.6,259,118.3,259,118.3z"/>
<g>
	<path fill="#333333" d="M351.7,157.3c34,0,69.9,7,106.7,20.9c78.9,29.8,158.3,44.9,236.1,44.9c74.3,0,144.4-14.3,201.3-39.5
		c0.4,19.9,0.4,41.4-0.2,63.6c-1.6,53.8-6.6,100.6-15,139c-11.4,52.3-26.4,77.3-37,89.1c-10.6,11.9-19.8,13.6-28,13.6
		c-0.2,0-0.4,0-0.7,0c-42.4-0.6-80.1-1.8-113.3-3c-34.7-1.2-64.7-2.2-92.3-2.2c-72.3,0-132.2,7.1-189.1,41.6
		c-39.3,23.8-77.5,53.8-108.6,80.3c-1.9-5.6-3.9-11.7-6-18.1c-14.5-44.3-32.6-102-53.9-171.7c-24-78.7-46.7-155.1-59.4-198.2
		c6.5-5.6,14.4-11.9,23.7-18.2c18.1-12.3,37.5-22.1,57.6-29.1C298.4,161.7,324.8,157.3,351.7,157.3 M952.7,64
		c-34.4,48.3-129.9,95.1-258.3,95.1c-64.1,0-136.5-11.7-213.5-40.8c-47.5-17.9-90.7-25.1-129.3-25.1
		c-149.5,0-231.4,106.6-231.4,106.6s150.9,516.3,166,516.3c0.2,0,0.3-0.1,0.5-0.2c12.1-12.4,89.2-88.9,166.5-135.8
		c42.9-26,89.6-32.3,155.9-32.3c53,0,118.6,4,204.8,5.2c0.5,0,1,0,1.5,0C1007.7,553,952.7,64,952.7,64L952.7,64z"/>
</g>
<path fill="#333333" d="M83.6,75.6c14.7-4.4,30.2,3.7,34.6,18l259.6,831.3
	c4.5,14.3-3.8,29.5-18.4,33.9c-14.7,4.4-30.2-3.7-34.6-18L65.2,109.5C60.7,95.1,69,80,83.6,75.6z"/>
</svg>
