<?xml version="1.0" encoding="utf-8"?>
<!-- Generator: Adobe Illustrator 22.1.0, SVG Export Plug-In . SVG Version: 6.00 Build 0)  -->
<svg version="1.1" id="图层_6" xmlns="http://www.w3.org/2000/svg" xmlns:xlink="http://www.w3.org/1999/xlink" x="0px" y="0px"
	 viewBox="0 0 1024 1024" fill="enable-background:new 0 0 1024 1024" xml:space="preserve">
<path fill="#FED0C2" d="M256,155.7h640V898H256V155.7z"/>
<g>
	<path fill="fill:#333333" d="M848,158.2c26.5,0,48,23.1,48,51.4v634.9c0,28.4-21.5,51.4-48,51.4H176c-26.5,0-48-23.1-48-51.4
		V209.6c0-28.4,21.5-51.4,48-51.4H848 M848,94.2H176c-61.9,0-112,51.7-112,115.4v634.9C64,908.3,114.1,960,176,960h672
		c61.9,0,112-51.7,112-115.4V209.6C960,145.9,909.9,94.2,848,94.2L848,94.2z"/>
</g>
<path fill="#333333" d="M284.2,279.5h455.1c15.7,0,28.4,13.9,28.4,31.1
	c0,17.2-12.7,31.1-28.4,31.1H284.2c-15.7,0-28.4-13.9-28.4-31.1C255.8,293.4,268.5,279.5,284.2,279.5z"/>
<path fill="#333333" d="M285,712.5h451.1c15.6,0,28.2,13.9,28.2,31.1
	c0,17.2-12.6,31.1-28.2,31.1H285c-15.6,0-28.2-13.9-28.2-31.1C256.8,726.4,269.4,712.5,285,712.5z"/>
<path fill="#333333" d="M285.1,495.4h451c15.6,0,28.2,13.9,28.2,31.1
	c0,17.2-12.6,31.1-28.2,31.1h-451c-15.6,0-28.2-13.9-28.2-31.1C256.9,509.3,269.5,495.4,285.1,495.4z"/>
<path fill="#333333" d="M351.9,64.9c17.7,0,32,13.7,32,30.6v122.3
	c0,16.9-14.3,30.6-32,30.6c-17.7,0-32-13.7-32-30.6V95.5C319.9,78.6,334.2,64.9,351.9,64.9z"/>
<path fill="#333333" d="M671.9,64c17.7,0,32,13.7,32,30.6v122.3
	c0,16.9-14.3,30.6-32,30.6c-17.7,0-32-13.7-32-30.6V94.6C639.9,77.7,654.2,64,671.9,64z"/>
</svg>
