<?xml version="1.0" encoding="utf-8"?>
<!-- Generator: Adobe Illustrator 22.1.0, SVG Export Plug-In . SVG Version: 6.00 Build 0)  -->
<svg version="1.1" id="图层_3" xmlns="http://www.w3.org/2000/svg" xmlns:xlink="http://www.w3.org/1999/xlink" x="0px" y="0px"
	 viewBox="0 0 1024 1024" style="enable-background:new 0 0 1024 1024;" xml:space="preserve">
<path fill="#F29199" style="fill-rule:evenodd;clip-rule:evenodd;" d="M624.1,138.5C827,161.5,935.3,298.8,935.3,512
	c0,213.2-131.4,365.1-311.3,398.4c-213.2,0-386-172.8-386-386S410.9,138.5,624.1,138.5z"/>
<g>
	<path fill="#333333" d="M512,127.8c51.9,0,102.2,10.2,149.5,30.2c45.7,19.3,86.8,47.1,122.1,82.4
		c35.3,35.3,63,76.4,82.4,122.1c20,47.3,30.2,97.6,30.2,149.5c0,51.9-10.2,102.2-30.2,149.5c-19.3,45.7-47.1,86.8-82.4,122.1
		c-35.3,35.3-76.4,63-122.1,82.4c-47.3,20-97.6,30.2-149.5,30.2c-51.9,0-102.2-10.2-149.5-30.2c-45.7-19.3-86.8-47.1-122.1-82.4
		c-35.3-35.3-63-76.4-82.4-122.1c-20-47.3-30.2-97.6-30.2-149.5c0-51.9,10.1-102.2,30.2-149.5c19.3-45.7,47.1-86.8,82.4-122.1
		s76.4-63,122.1-82.4C409.8,137.9,460.1,127.8,512,127.8 M512,63.8C264.5,63.8,63.8,264.5,63.8,512c0,247.5,200.7,448.2,448.2,448.2
		c247.5,0,448.2-200.7,448.2-448.2C960.2,264.5,759.5,63.8,512,63.8L512,63.8z"/>
</g>
<path fill="#333333" style="fill-rule:evenodd;clip-rule:evenodd;" d="M318.3,454.9c9.7-9.7,25.5-9.7,35.2,0l140.9,140.9
	c9.7,9.7,9.7,25.5,0,35.2c-9.7,9.7-25.5,9.7-35.2,0L318.3,490.1C308.6,480.4,308.6,464.6,318.3,454.9z"/>
<path fill="#333333" style="fill-rule:evenodd;clip-rule:evenodd;fill:#333333;" d="M459.2,595.8l211.3-211.3c9.7-9.7,25.5-9.7,35.2,0
	c9.7,9.7,9.7,25.5,0,35.2L494.4,631c-9.7,9.7-25.5,9.7-35.2,0C449.5,621.3,449.5,605.5,459.2,595.8z"/>
</svg>
