<?xml version="1.0" encoding="utf-8"?>
<!-- Generator: Adobe Illustrator 22.1.0, SVG Export Plug-In . SVG Version: 6.00 Build 0)  -->
<svg version="1.1" id="图层_9" xmlns="http://www.w3.org/2000/svg" xmlns:xlink="http://www.w3.org/1999/xlink" x="0px" y="0px"
	 viewBox="0 0 1024 1024" style="enable-background:new 0 0 1024 1024;" xml:space="preserve">
<path style="fill-rule:evenodd;clip-rule:evenodd;fill:none;stroke:#666666;stroke-width:64;stroke-miterlimit:10;" d="M313.5,794.4
	c-66.5,0-112.1,0-112.1,0C107.8,794.4,32,718.5,32,624.9V286.1c0-93.6,75.8-169.4,169.4-169.4h621.2c93.6,0,169.4,75.8,169.4,169.4
	v338.8c0,93.6-75.8,169.4-169.4,169.4c0,0-136.3,0-281.3,0c-10.6,0-131.6,112.9-142.3,112.9"/>
<path style="fill-rule:evenodd;clip-rule:evenodd;fill:#E5E5E5;" d="M257.9,229.6h508.2c62.4,0,112.9,50.6,112.9,112.9v225.9
	c0,62.4-50.6,112.9-112.9,112.9H257.9c-62.4,0-112.9-50.6-112.9-112.9V342.6C144.9,280.2,195.5,229.6,257.9,229.6z"/>
<path style="fill-rule:evenodd;clip-rule:evenodd;fill:#666666;" d="M314.4,342.6h395.3c15.6,0,28.2,12.6,28.2,28.2
	c0,15.6-12.6,28.2-28.2,28.2H314.4c-15.6,0-28.2-12.6-28.2-28.2C286.1,355.2,298.8,342.6,314.4,342.6z"/>
<path style="fill-rule:evenodd;clip-rule:evenodd;fill:#666666;" d="M314.4,483.8h395.3c15.6,0,28.2,12.6,28.2,28.2
	s-12.6,28.2-28.2,28.2H314.4c-15.6,0-28.2-12.6-28.2-28.2S298.8,483.8,314.4,483.8z"/>
</svg>
