<?xml version="1.0" encoding="utf-8"?>
<!-- Generator: Adobe Illustrator 22.1.0, SVG Export Plug-In . SVG Version: 6.00 Build 0)  -->
<svg version="1.1" id="图层_5" xmlns="http://www.w3.org/2000/svg" xmlns:xlink="http://www.w3.org/1999/xlink" x="0px" y="0px"
	 viewBox="0 0 1024 1024" fill="enable-background:new 0 0 1024 1024;" xml:space="preserve">
<path fill="#333333" d="M498,828.2h28c38.7,0,70,29.5,70,65.9c0,36.4-31.3,65.9-70,65.9
	h-28c-38.7,0-70-29.5-70-65.9C428,857.7,459.3,828.2,498,828.2z"/>
<path fill="#333333" d="M512,64c30.9,0,56,23.6,56,52.7v26.4c0,29.1-25.1,52.7-56,52.7
	s-56-23.6-56-52.7v-26.4C456,87.6,481.1,64,512,64z"/>
<path fill="#F7DF87" d="M876,512c0-41.6-8.7-82-25.9-120c-16.7-37-40.7-70.3-71.3-99c-30.8-28.9-66.8-51.6-106.9-67.6
	c-2.9-1.1-5.8-2.2-8.7-3.3H652c-216.5,0-392,165.2-392,368.9v232.4h616V512z"/>
<path fill="#333333" d="M932,824.4V591.1V512c0-203-175.5-367.5-392-367.5h-56C267.5,144.5,92,309,92,512v312.4
	c-15.5,0-28,12.8-28,28.6c0,15.8,12.5,28.6,28,28.6h840c15.5,0,28-12.8,28-28.6C960,837.2,947.5,824.4,932,824.4z M148,512
	c0-41.6,8.7-82,25.9-120c16.7-37,40.7-70.3,71.3-99c30.8-28.9,66.8-51.6,106.9-67.6c41.7-16.5,86.1-24.9,131.9-24.9h56
	c42.6,0,84,7.3,123.2,21.6c2.9,1.1,5.8,2.2,8.7,3.3c40.1,15.9,76.1,38.6,106.9,67.6c30.6,28.7,54.6,62,71.3,99
	c17.2,38,25.9,78.4,25.9,120v311.5H260H148V512z"/>
</svg>
