<?xml version="1.0" encoding="utf-8"?>
<!-- Generator: Adobe Illustrator 22.1.0, SVG Export Plug-In . SVG Version: 6.00 Build 0)  -->
<svg version="1.1" xmlns="http://www.w3.org/2000/svg" xmlns:xlink="http://www.w3.org/1999/xlink" x="0px" y="0px"
	 viewBox="0 0 1024 1024" style="enable-background:new 0 0 1024 1024;" xml:space="preserve">
<g>
  <path class="st2" d="M276.1,598.2v282.6c0,13.9,11.3,25.3,25.3,25.3h420.8c13.9,0,25.3-11.3,25.3-25.3V598.2
    c-67.2,45.5-148.4,72.1-235.7,72.1C424.5,670.3,343.4,643.7,276.1,598.2z"/>
  <path class="st1" d="M722.2,59.4H301.4c-46.8,0-84.9,38.1-84.9,84.9v736.4c0,46.8,38.1,84.9,84.9,84.9h420.8c46.8,0,84.9-38.1,84.9-84.9V144.3
  C807.1,97.5,769,59.4,722.2,59.4z M281.1,780.5h461.4v100.2c0,11.2-9.1,20.3-20.3,20.3H301.4c-11.2,0-20.3-9.1-20.3-20.3V780.5z
  M742.5,280.8v437.1H281.1V280.8H742.5z M281.1,144.3c0-11.2,9.1-20.3,20.3-20.3h420.8c11.2,0,20.3,9.1,20.3,20.3v73.9H281.1V144.3z
  "/>
  <path class="st1" d="M510.8,801.8c21.8,0,39.5,11.8,39.5,26.3s-17.7,26.3-39.5,26.3s-39.5-11.8-39.5-26.3
    C471.4,813.6,489.1,801.8,510.8,801.8z"/>
</g>
</svg>
