<?xml version="1.0" encoding="utf-8"?>
<!-- Generator: Adobe Illustrator 22.1.0, SVG Export Plug-In . SVG Version: 6.00 Build 0)  -->
<svg version="1.1" xmlns="http://www.w3.org/2000/svg" xmlns:xlink="http://www.w3.org/1999/xlink" x="0px" y="0px"
	 viewBox="0 0 1024 1024" style="enable-background:new 0 0 1024 1024;" xml:space="preserve">
<g id="图层_1" style="display:none;">
</g>
<g id="图层_2">
	<g>
		<path style="fill:#8BC271;" d="M512,32c64.8,0,127.7,12.7,186.8,37.7c57.2,24.2,108.5,58.8,152.6,102.9s78.7,95.4,102.9,152.6
			c25,59.2,37.7,122,37.7,186.8s-12.7,127.7-37.7,186.8c-24.2,57.2-58.8,108.5-102.9,152.6S756,930.1,698.8,954.3
			c-59.2,25-122,37.7-186.8,37.7s-127.7-12.7-186.8-37.7c-57.2-24.2-108.5-58.8-152.6-102.9S93.9,756,69.7,698.8
			C44.7,639.7,32,576.8,32,512s12.7-127.7,37.7-186.8c24.2-57.2,58.8-108.5,102.9-152.6S268,93.9,325.2,69.7
			C384.3,44.7,447.2,32,512,32 M512,0C229.2,0,0,229.2,0,512s229.2,512,512,512s512-229.2,512-512S794.8,0,512,0L512,0z"/>
	</g>
	<g>
		<path style="fill:#8BC271;" d="M736,480H288c-17.6,0-32,14.4-32,32c0,17.6,14.4,32,32,32h448c17.6,0,32-14.4,32-32
			C768,494.4,753.6,480,736,480L736,480z"/>
	</g>
	<g>
		<path style="fill:#8BC271;" d="M512,256c-17.6,0-32,14.4-32,32v448c0,17.6,14.4,32,32,32c17.6,0,32-14.4,32-32V288
			C544,270.4,529.6,256,512,256L512,256z"/>
	</g>
</g>
</svg>
