<?xml version="1.0" encoding="utf-8"?>
<!-- Generator: Adobe Illustrator 22.1.0, SVG Export Plug-In . SVG Version: 6.00 Build 0)  -->
<svg version="1.1" xmlns="http://www.w3.org/2000/svg" xmlns:xlink="http://www.w3.org/1999/xlink" x="0px" y="0px"
	 viewBox="0 0 1024 1024" style="enable-background:new 0 0 1024 1024;" xml:space="preserve">
<g>
	<path class="st2" d="M199.6,545.3c-9.2,13.1-17.5,28.1-23.1,44.8c-12.4,36.8-14.5,67.5-13.3,87.7c13-9,29-13.3,45-11.8
		c21.4,2,40.5,14.1,51.1,32.5c7.4,12.9,16.1,25.4,25.9,37c13.6,16.1,18.4,37.7,12.6,57.9c-5.5,19.3-20.2,35.2-39.4,42.5
		c-12.4,4.8-20.4,9.9-24.5,13.5c4.1,3.6,12.4,9.1,26.6,14.4c15.6,5.8,42,12.6,79.7,12.6c50.3,0,88.9-12.9,104.9-25.6
		c13.3-10.7,30.1-15.8,47.1-14.3c14.4,1,25.3,1,40.1,0l0.4,0c1.3-0.1,2.8-0.1,4.3-0.1h0c15.2,0,30,5.1,41.8,14.4
		c16.1,12.9,54.7,25.7,104.9,25.7c37.7,0,64.2-6.9,79.7-12.6c14.2-5.3,22.5-10.7,26.6-14.3c-4.1-3.6-12.1-8.7-24.4-13.5
		c-19.1-7.4-33.7-23.2-39.2-42.4c-5.7-20.2-1-41.8,12.5-57.9l0.1-0.1c9.8-11.5,18.6-23.9,26-36.8c10.5-18.3,29.5-30.4,51-32.5
		c2.1-0.2,4.4-0.3,6.8-0.3c13.8,0,27.1,4.2,38.2,11.9c1.2-20.2-1-51-13.3-87.6c-7.7-22.9-20.4-42.6-33.4-58.4
		c-84.7,69.2-195.2,111.1-316.1,111.1C385.5,642.8,281.7,606.4,199.6,545.3z"/>
	<path class="st1" d="M926.6,563.8c-12.3-36.8-32.8-67.2-52.6-90.3c-5.6-6.5-11.1-12.4-16.3-17.7c0.3-3.6,0.5-7.1,0.5-10.6
		c0-26-7.3-51.1-21.8-74.8c0-0.2,0-0.4,0-0.5c0-168.7-145.3-305.9-324-305.9c-178.6,0-323.9,137.2-323.9,305.9c0,0.4,0,0.9,0,1.3
		c-14.2,23.6-21.4,48.4-21.4,74c0,3.2,0.1,6.5,0.4,9.8c-9.7,9.6-20.1,21.3-30.2,34.8c-15.4,20.5-29.9,45.3-39.5,73.9
		c-22.5,67-24,136.1-3.7,175.9c11.3,22.2,27.2,31.2,38.4,34.8c13.2,4.2,37.6,6.6,65.9-16.4c2.4,3.6,4.9,7.3,7.5,10.8
		c-36.9,19.9-57.6,48.5-57.6,80.6c0,63.8,80.8,110.1,192.1,110.1c61.6,0,116.2-14.4,151.5-39.8c14,0.8,25.7,0.8,40.6,0
		c35.1,25.4,89.8,39.8,151.4,39.8l38.6,0l-0.9-1.9c91.4-9.2,154.4-51.9,154.4-108.2c0-19.7-8-54.2-57.2-80.5
		c2.6-3.6,5.1-7.2,7.5-10.8c15.5,12.5,31.8,19,48,19c5.9,0,11.8-0.9,17.5-2.7l0.2,0c11.3-3.6,27.2-12.5,38.5-34.8
		C950.6,699.8,949.1,630.7,926.6,563.8z M861.1,677.8c-11-7.7-24.4-11.9-38.2-11.9c-2.4,0-4.7,0.1-6.8,0.3
		c-21.4,2.1-40.5,14.2-51,32.5c-7.4,12.9-16.2,25.3-26,36.8l-0.1,0.1c-13.5,16.1-18.2,37.7-12.5,57.9c5.5,19.2,20.2,35,39.2,42.4
		c12.3,4.7,20.2,9.9,24.4,13.5c-4.1,3.6-12.4,9.1-26.6,14.3c-15.6,5.8-42,12.6-79.7,12.6c-50.3,0-88.9-12.9-104.9-25.7
		c-11.7-9.3-26.6-14.4-41.8-14.4h0c-1.5,0-2.9,0-4.3,0.1l-0.4,0c-14.8,1-25.7,1-40.1,0c-17.1-1.4-33.8,3.7-47.1,14.3
		c-16,12.8-54.6,25.6-104.9,25.6c-37.7,0-64.2-6.9-79.7-12.6c-14.2-5.3-22.5-10.8-26.6-14.4c4.1-3.6,12.1-8.8,24.5-13.5
		c19.2-7.3,33.9-23.2,39.4-42.5c5.7-20.2,1-41.8-12.6-57.9c-9.8-11.6-18.5-24-25.9-37c-10.6-18.4-29.7-30.5-51.1-32.5
		c-16.1-1.6-32.1,2.7-45,11.8c-1.3-20.2,0.9-50.8,13.3-87.7c5.6-16.7,13.9-31.7,23.1-44.8c10.5-15,22.2-27.5,32.1-36.9
		c15.5-14.7,22.6-35.8,19.1-56.4c-0.4-2.6-0.6-4.8-0.6-6.8c0-11.1,3.8-22.6,11.3-34c7.7-11.7,11.2-25.2,10.2-39.1
		c-0.1-0.7-0.1-1.6-0.1-2.2c0-122.8,108-222.8,240.8-222.8c132.8,0,240.8,99.9,240.8,222.8c0,0.4-0.1,1.3-0.1,1.7l0,0.2
		c-0.9,14,2.7,27.5,10.5,39.1c7.6,11.4,11.5,22.9,11.5,34.3c0,2.2-0.2,4.4-0.6,6.7c-3.9,21,3.2,42.4,18.9,57.2
		c6.5,6.2,13.9,13.8,21.1,22.6c13,15.8,25.7,35.6,33.4,58.4C860.1,626.9,862.3,657.6,861.1,677.8z"/>
</g>
</svg>
