<?xml version="1.0" encoding="utf-8"?>
<!-- Generator: Adobe Illustrator 22.1.0, SVG Export Plug-In . SVG Version: 6.00 Build 0)  -->
<svg version="1.1" id="layer_x5F_1" xmlns="http://www.w3.org/2000/svg" xmlns:xlink="http://www.w3.org/1999/xlink" x="0px"
	 y="0px" viewBox="0 0 1024 1024" style="enable-background:new 0 0 1024 1024;" xml:space="preserve">
<path class="st0" id="active_sign" d="M811.7,483c96.2,0,174.3,78.1,174.3,174.3s-78.1,174.3-174.3,174.3
	s-174.3-78.1-174.3-174.3S715.5,483,811.7,483z"/>
<path id="star" d="M419.1,422.4l12.5-96.5L362,254.3l99.9-18.5l48.4-84.6l48.4,84.6l99.9,18.5L589,325.9l12.5,96.5l-91.2-41.2
	L419.1,422.4z M510.3,342.8l48.5,21.9l-6.6-51l35.8-36.9l-51.6-9.6l-26.1-45.6l-26.1,45.6l-51.6,9.6l35.8,36.9l-6.6,51L510.3,342.8z
	"/>
<path class="st1" id="dot3" d="M453.8,451.1c10.4,0,18.8,8.4,18.8,18.8s-8.4,18.8-18.8,18.8s-18.8-8.4-18.8-18.8S443.4,451.1,453.8,451.1z"/>
<path class="st1" id="dot2" d="M510.3,450.1c10.4,0,18.8,8.4,18.8,18.8s-8.4,18.8-18.8,18.8s-18.8-8.4-18.8-18.8S499.9,450.1,510.3,450.1z"/>
<path class="st1" id="dot1" d="M566.8,450.1c10.4,0,18.8,8.4,18.8,18.8s-8.4,18.8-18.8,18.8c-10.4,0-18.8-8.4-18.8-18.8S556.4,450.1,566.8,450.1
	z"/>
<path class="st1" id="cup" d="M811.7,168.9H735V93.5H285.6v75.3H209c-20,0-36.3,16.3-36.3,36.3v131.8c0,51.2,41.6,92.8,92.8,92.8h21.8
	c5.9,47.3,27.1,91.1,61.4,125.3c24.9,24.9,54.9,43,87.6,53.2v163h-39c-17,0-31.4,11.3-36.1,26.8h-76.9c-20.8,0-37.7,16.9-37.7,37.7
	V911c0,20.8,16.9,37.7,37.7,37.7h452c20.8,0,37.7-16.9,37.7-37.7v-75.3c0-20.8-16.9-37.7-37.7-37.7h-76.9
	c-4.7-15.5-19-26.8-36.1-26.8h-39v-163C617,598,647,579.9,671.9,555c34.2-34.2,55.5-78,61.4-125.3h21.8c51.2,0,92.8-41.6,92.8-92.8
	V205.2C848,185.2,831.7,168.9,811.7,168.9z M285.6,394.9h-20.2c-31.9,0-57.8-25.9-57.8-57.8V205.2c0-0.7,0.6-1.3,1.3-1.3h76.7V394.9
	z M660.6,833.3h75.7c1.5,0,2.7,1.2,2.7,2.7v75.3c0,1.5-1.2,2.7-2.7,2.7h-452c-1.5,0-2.7-1.2-2.7-2.7V836c0-1.5,1.2-2.7,2.7-2.7H360
	c2.6,18.3,18.3,32.3,37.3,32.3h226C642.3,865.6,658,851.6,660.6,833.3z M623.3,806.4c1.5,0,2.7,1.2,2.7,2.7v18.8
	c0,1.5-1.2,2.7-2.7,2.7h-226c-1.5,0-2.7-1.2-2.7-2.7v-18.8c0-1.5,1.2-2.7,2.7-2.7h39h148H623.3z M549.3,771.6h-78v-0.2V616.2
	c9.7,1.3,19.6,2,29.6,2h18.8c10,0,19.9-0.7,29.6-2v155.2V771.6z M700,168.9v35v191v8.1c0,9.1-0.7,18.1-2,26.9
	c-9.7,64.8-54.1,118.5-113.7,141.4c-11.2,4.3-22.9,7.5-35,9.5c-9.6,1.6-19.5,2.4-29.6,2.4h-18.8c-10.1,0-20-0.8-29.6-2.4
	c-12.1-2-23.8-5.2-35-9.5c-59.5-22.9-103.9-76.6-113.7-141.4c-1.3-8.8-2-17.8-2-26.9v-8.1v-191v-35v-40.3H700V168.9z M813,337.1
	c0,31.9-25.9,57.8-57.8,57.8H735v-191h76.7c0.7,0,1.3,0.6,1.3,1.3V337.1z"/>
</svg>
