<?xml version="1.0" encoding="utf-8"?>
<!-- Generator: Adobe Illustrator 22.1.0, SVG Export Plug-In . SVG Version: 6.00 Build 0)  -->
<svg version="1.1" id="图层_1" xmlns="http://www.w3.org/2000/svg" xmlns:xlink="http://www.w3.org/1999/xlink" x="0px" y="0px"
	 viewBox="0 0 1024 1024" style="enable-background:new 0 0 1024 1024;" xml:space="preserve">
<path style="fill:#90B67D;" d="M512,791.2c282.8,0,512,39.2,512,87.6c0,48.4-229.2,87.6-512,87.6S0,927.2,0,878.8
	S229.2,791.2,512,791.2z"/>
<g>
	<g>
		<path style="fill:#CFE4C6;" d="M914.3,721c0,0-117.1,157.9-377.3,13.5c-1.9-1.1,0,0,0,0l175.2,175.2L914.3,721z"/>
		<path style="fill:none;stroke:#666666;stroke-width:32;stroke-linecap:square;stroke-miterlimit:10;" d="M626.2,564.7l34.3,35.2
			c18.5-3.3,44.8-0.9,57.8,12.5c22,22.6,24.2,67.7-1.5,92.4c-25.6,24.7-70.8,21.2-92.8-1.5c-13-13.4-14.6-39.7-10.7-58L579,610.1"/>
		<path style="fill:#CFE4C6;stroke:#666666;stroke-width:32;stroke-miterlimit:10;" d="M633.6,830.6l-35.4,34.1
			c3.1,18.4,1.1,44.5-12.5,57.6c-23.1,22.3-68.3,23.7-92.8-1.5s-21.6-70.2,1.5-92.4c13.6-13.1,39.9-14.3,58.2-10.6l35.4-34.1"/>
		<path style="fill:none;stroke:#666666;stroke-width:32;stroke-miterlimit:10;" d="M626.2,564.7c49.5-47.8,92.6-92.7,92.6-92.7
			l195,200.5c19.6,20.1,20.1,50.3-0.4,70.1L713.2,935.9c0,0-43.6-44.8-91.3-93.9 M576.2,795c-47.5-48.8-91.3-93.9-91.3-93.9
			s48.8-47.1,94.3-91"/>
	</g>
	<g>
		<path style="fill:#CFE4C6;" d="M403.7,446.5c0,0-52.4,92.8-121.3,161.7C216.6,674,134.2,715.9,134.2,715.9h269.5V446.5z"/>
		<path style="fill:none;stroke:#666666;stroke-width:32;stroke-linecap:square;stroke-miterlimit:10;" d="M421.2,603.7h-48.7
			c-10.5,15.2-30,32.4-48.7,32.4c-31.8,0-65-30.1-65-64.8s33.2-64.8,65-64.8c18.8,0,38.2,17.2,48.7,32.4h48.7"/>
		<path style="fill:none;stroke:#666666;stroke-width:32;stroke-miterlimit:10;" d="M226.7,411.7c-68.2,0-129.9-2.3-129.9-2.3
			s0,8.6,0,53.9 M96.3,448.1c0,55.8,0.5,235.6,0.5,235.6c0,27.6,20.5,49.2,48.7,49.2h276.1c0,0,0-61.3,0-128.5 M421.5,540.2
			c0-66.8,0-128.5,0-128.5s-67.3,0-129.9,0"/>
	</g>
	<g>
		<path style="fill:#CFE4C6;" d="M734.6,98.6c0,0-159.9,303-282.9,296.4h282.9V98.6z"/>
		<path style="fill:none;stroke:#666666;stroke-width:32;stroke-linecap:square;stroke-miterlimit:10;" d="M419.5,217.2h49.2
			c10.5-15.4,30.5-32.4,49.2-32.4c31.7,0,65.6,29.6,65.6,64.8s-34,64.8-65.6,64.8c-18.7,0-38.8-17-49.2-32.4h-49.2"/>
		<path style="fill:none;stroke:#666666;stroke-width:32;stroke-miterlimit:10;" d="M421.5,217.2c0-68-2.4-129.5-2.4-129.5h280.3
			c28.1,0,50.3,20.4,50.3,48.6v275.2c0,0-62.7,0-131.3,0 M552.8,411.4c-68.3,0-131.3,0-131.3,0s0-67.1,0-129.5"/>
		<path style="fill:#CFE4C6;stroke:#666666;stroke-width:32;stroke-miterlimit:10;" d="M622.9,395.1V449
			c15.4,11.6,32.8,33.2,32.8,53.9c0,35.2-30.5,71.9-65.6,71.9c-35.2,0-65.6-36.7-65.6-71.9c0-20.8,17.4-42.3,32.8-53.9v-53.9"/>
	</g>
	<g>
		<path style="fill:none;stroke:#666666;stroke-width:32;stroke-linecap:square;stroke-miterlimit:10;" d="M227.3,411.3v-49
			c-15.4-10.6-32.8-30.1-32.8-49c0-31.9,30.5-65.3,65.6-65.3c35.2,0,65.6,33.4,65.6,65.3c0,18.9-17.4,38.4-32.8,49v49"/>
		<path style="fill:none;stroke:#666666;stroke-width:32;stroke-miterlimit:10;" d="M419.6,222.8c0-68.6,0-134.7,0-134.7l-273.5,1
			c-27.9,0-49.9,20.6-49.9,49v273.4c0,0,66.7,0,134.7,0 M284.9,411.5c67.8,0,134.7,0,134.7,0s0-71.8,0-134.7"/>
	</g>
</g>
</svg>
