<?xml version="1.0" encoding="utf-8"?>
<!-- Generator: Adobe Illustrator 22.1.0, SVG Export Plug-In . SVG Version: 6.00 Build 0)  -->
<svg version="1.1" xmlns="http://www.w3.org/2000/svg" xmlns:xlink="http://www.w3.org/1999/xlink" x="0px" y="0px"
	 viewBox="0 0 1024 1024" style="enable-background:new 0 0 1024 1024;" xml:space="preserve">
<g>
	<path class="st1" d="M511.5,615.2c-57.4,0-104.2-46.7-104.2-104.2h50c0,29.9,24.3,54.2,54.2,54.2c29.9,0,54.2-24.3,54.2-54.2
		c0-29.9-24.3-54.2-54.2-54.2v-50c57.4,0,104.2,46.7,104.2,104.2C615.7,568.4,568.9,615.2,511.5,615.2z"/>
	<path class="st2" d="M511.1,114c-219.3,0-397,177.7-397,397s177.7,397,397,397c219.3,0,397-177.7,397-397S730.4,114,511.1,114z
		 M510.9,748.5c-131.2,0-237.5-106.3-237.5-237.5c0-131.2,106.3-237.5,237.5-237.5c131.2,0,237.5,106.3,237.5,237.5
		C748.4,642.2,642,748.5,510.9,748.5z"/>
	<path class="st1" d="M511.1,958.2c-60.4,0-118.9-11.8-174.1-35.2c-53.3-22.5-101.1-54.8-142.1-95.8s-73.3-88.9-95.8-142.1
		C75.8,629.9,63.9,571.4,63.9,511c0-60.4,11.8-118.9,35.2-174.1c22.5-53.3,54.8-101.1,95.8-142.1S283.8,121.5,337,99
		c55.1-23.3,113.7-35.2,174.1-35.2c60.4,0,118.9,11.8,174.1,35.2c53.3,22.5,101.1,54.8,142.1,95.8c41.1,41.1,73.3,88.9,95.8,142.1
		c23.3,55.1,35.2,113.7,35.2,174.1c0,53.8-9.5,106.5-28.2,156.5L883.3,650c16.6-44.4,25-91.2,25-139c0-219-178.2-397.2-397.2-397.2
		c-219,0-397.2,178.2-397.2,397.2c0,219,178.2,397.2,397.2,397.2c39,0,77.6-5.6,114.5-16.8l14.4,47.9
		C598.4,951.8,555,958.2,511.1,958.2z"/>
	<path class="st1" d="M509.9,798.9c-29.2,0-57.9-4.4-85.5-12.9l14.8-47.6c22.8,7.1,46.6,10.7,70.7,10.7c131.2,0,238-106.7,238-238
		c0-131.2-106.7-238-238-238s-238,106.7-238,238c0,30.4,5.6,59.9,16.7,87.9l-46.3,18.4c-13.4-33.8-20.3-69.6-20.3-106.3
		c0-76.9,29.9-149.1,84.3-203.5c54.4-54.4,126.6-84.3,203.5-84.3c76.9,0,149.1,29.9,203.5,84.3c54.4,54.4,84.3,126.6,84.3,203.5
		c0,76.9-29.9,149.1-84.3,203.5C659,768.9,586.8,798.9,509.9,798.9z"/>
</g>
</svg>
