<?xml version="1.0" encoding="utf-8"?>
<!-- Generator: Adobe Illustrator 22.1.0, SVG Export Plug-In . SVG Version: 6.00 Build 0)  -->
<svg version="1.1" id="图层_1" xmlns="http://www.w3.org/2000/svg" xmlns:xlink="http://www.w3.org/1999/xlink" x="0px" y="0px"
	 viewBox="0 0 1024 1024" style="enable-background:new 0 0 1024 1024;" xml:space="preserve">
<g id="图层_2_1_">
	<path style="fill:#90B67D;" d="M512,722.2c282.8,0,512,54.3,512,121.4c0,67-229.2,121.4-512,121.4S0,910.7,0,843.6
		C0,776.6,229.2,722.2,512,722.2z"/>
	<path style="fill:#666666;" d="M485.1,182.7H512v148.4h-26.9V182.7z"/>
	<path style="fill:none;stroke:#666666;stroke-width:32;stroke-linecap:round;stroke-linejoin:bevel;stroke-miterlimit:10;" d="
		M486.6,211.2c0,0,4.6-8.3,11.4-20.4c17.9-32,50.5-90.4,50.5-90.4c30.1-32.2,80.7-34,113.1-4.1c32.4,29.9,34.2,80.3,4.1,112.5
		L538.9,317.6c-10,10.7-36.6,24.3-53.9,40.5c-34.7,32.4-62.4,87.5-65.3,133.8c-4.4,69.4,0,53.8,0,53.8"/>
	<path style="fill:none;stroke:#666666;stroke-width:32;stroke-linecap:round;stroke-linejoin:bevel;stroke-miterlimit:10;" d="
		M510.7,211.2l-62-110.8c-30.1-32.2-80.9-34-113.3-4.1s-34.3,80.3-4.1,112.5l127,108.8c10,10.7,36.6,24.3,54,40.5
		c34.7,32.4,62.5,87.5,65.4,133.8c4.4,69.4,0,53.8,0,53.8"/>
	<path style="fill:#666666;" d="M828.6,340.1c23.2,0,42.1,18.9,42.1,42.2c0,23.3-18.9,42.2-42.1,42.2H168.4
		c-23.2,0-42.1-18.9-42.1-42.2c0-23.3,18.9-42.2,42.1-42.2H828.6 M828.6,308.1H168.4c-40.9,0-74.1,33.2-74.1,74.2
		s33.2,74.2,74.1,74.2h660.2c40.9,0,74.1-33.2,74.1-74.2C902.7,341.3,869.6,308.1,828.6,308.1L828.6,308.1z"/>
	<path style="fill:#CFE4C6;" d="M781.5,452.5c0,0-337.1,380.7-565.9,377.7c-20.7-1.7,565.9,0,565.9,0V452.5z"/>
	<path style="fill:#666666;" d="M776.4,457.5v367.6H220.6V457.5H776.4 M808.4,425.5H188.6v404.6c0,14.9,12.1,27,26.9,27h565.9
		c14.9,0,26.9-12.1,26.9-27L808.4,425.5L808.4,425.5z"/>
</g>
</svg>
