<?xml version="1.0" encoding="utf-8"?>
<!-- Generator: Adobe Illustrator 22.1.0, SVG Export Plug-In . SVG Version: 6.00 Build 0)  -->
<svg version="1.1" xmlns="http://www.w3.org/2000/svg" xmlns:xlink="http://www.w3.org/1999/xlink" x="0px" y="0px"
	 viewBox="0 0 1024 1024" style="enable-background:new 0 0 1024 1024;" xml:space="preserve">
<g id="图层_2">
	<path style="fill-rule:evenodd;clip-rule:evenodd;fill:none;stroke:#666666;stroke-width:64;stroke-miterlimit:10;" d="M55.3,363.8
		c5-15.4,10.7-30.4,17.2-45.1 M291.7,85.4C357.7,51.3,432.6,32,512,32c265.1,0,480,214.9,480,480c0,265.1-214.9,480-480,480
		S32,777.1,32,512c0-20.6,1.3-41,3.8-60.9"/>
	<g>
		<path style="fill-rule:evenodd;clip-rule:evenodd;" d="M790,534c-12.5,12.5-31.9,13.3-43.4,1.9L539.3,328.5
			c-11.5-11.5-10.6-30.9,1.9-43.4c12.5-12.5,31.9-13.3,43.4-1.9l207.4,207.4C803.4,502.1,802.5,521.5,790,534z"/>
		<path style="fill-rule:evenodd;clip-rule:evenodd;" d="M771.2,544H252.8c-15.9,0-28.8-14.3-28.8-32s12.9-32,28.8-32h518.4
			c15.9,0,28.8,14.3,28.8,32S787.1,544,771.2,544z"/>
		<path style="fill-rule:evenodd;clip-rule:evenodd;" d="M541.1,738.9c-12.5-12.5-13.3-31.9-1.9-43.4l207.4-207.4
			c11.5-11.5,30.9-10.6,43.4,1.9c12.5,12.5,13.3,31.9,1.9,43.4L584.5,740.7C573.1,752.2,553.6,751.4,541.1,738.9z"/>
	</g>
</g>
</svg>
