<?xml version="1.0" standalone="no"?><!DOCTYPE svg PUBLIC "-//W3C//DTD SVG 1.1//EN" "http://www.w3.org/Graphics/SVG/1.1/DTD/svg11.dtd"><svg class="icon" width="200px" height="200.00px" viewBox="0 0 1024 1024" version="1.1" xmlns="http://www.w3.org/2000/svg"><path d="M307.8125 645.6875c-15.28125-24.28125-26.71875-45.09375-33.1875-57.09375-3.75-7.125-5.8125-15.09375-5.8125-23.15625V349.90625c0-32.15625 23.25-58.875 53.71875-64.125 4.96875-0.84375 10.03125-0.9375 15-0.1875 14.4375 1.96875 67.3125 4.03125 142.03125-54.28125 18.375-14.34375 44.34375-13.96875 62.15625 1.03125 69.375 58.21875 128.71875 55.21875 143.90625 53.15625 3.75-0.46875 7.59375-0.65625 11.34375-0.1875 32.15625 3.75 57.1875 31.21875 57.1875 64.59375v215.4375c0 8.15625-1.96875 16.125-5.8125 23.34375-25.6875 47.8125-131.71875 232.59375-237.5625 232.59375-53.25 0-106.40625-47.15625-149.25-99.9375" fill="#E5E5E5" /><path d="M643.90625 490.4375H533.5625V380.09375c0-12.1875-9.84375-22.03125-22.03125-22.03125S489.5 367.90625 489.5 380.09375V490.4375H379.15625c-12.1875 0-22.03125 9.84375-22.03125 22.03125s9.84375 22.03125 22.03125 22.03125H489.5v110.25c0 12.1875 9.84375 22.03125 22.03125 22.03125s22.03125-9.84375 22.03125-22.03125V534.5h110.25c12.1875 0 22.03125-9.84375 22.03125-22.03125 0.09375-12.1875-9.75-22.03125-21.9375-22.03125z" fill="#777777" /><path d="M510.5 955.0625c-69 0-143.625-48.5625-221.71875-144.28125l36.28125-29.625c67.78125 83.0625 131.90625 127.03125 185.4375 127.03125 55.21875 0 121.59375-46.125 191.8125-133.5 58.875-73.21875 103.03125-153.75 115.125-176.71875 1.03125-1.875 1.5-4.03125 1.5-6.1875V291.875c0-34.6875-27.09375-63.09375-61.6875-64.6875-0.46875 0-1.21875 0-2.4375 0.1875-11.25 1.78125-42 4.59375-84.09375-6.09375-52.6875-13.5-103.59375-42.75-151.21875-87.09375-4.96875-4.59375-12.5625-4.875-17.71875-0.46875-51.9375 43.96875-103.59375 73.21875-153.65625 86.90625-41.25 11.34375-69.65625 8.53125-79.96875 6.75-1.3125-0.1875-2.15625-0.28125-2.625-0.1875-34.5 1.78125-61.40625 30.1875-61.40625 64.6875v299.90625c0 2.15625 0.5625 4.3125 1.5 6.1875 7.875 15 24.46875 45.65625 47.90625 82.78125L213.875 705.78125c-24.28125-38.53125-41.625-70.40625-49.875-86.0625-4.5-8.625-6.84375-18.28125-6.84375-27.9375V291.875c0-59.53125 46.5-108.5625 105.9375-111.5625 4.125-0.1875 8.25 0.09375 12.75 0.84375 5.625 0.9375 26.625 3.375 59.8125-5.71875 43.40625-11.90625 89.0625-37.96875 135.75-77.53125 23.25-19.6875 57.5625-18.84375 79.96875 1.96875 41.90625 38.90625 85.875 64.5 130.875 75.9375 34.6875 8.8125 58.78125 6.1875 65.34375 5.25 4.03125-0.65625 8.0625-0.84375 11.8125-0.65625 59.625 2.8125 106.40625 51.75 106.40625 111.5625v299.90625c0 9.75-2.4375 19.5-6.9375 28.03125-12.5625 23.90625-58.5 107.71875-120.09375 184.21875-80.53125 100.125-157.40625 150.9375-228.28125 150.9375z" fill="#777777" /></svg>