<?xml version="1.0" standalone="no"?><!DOCTYPE svg PUBLIC "-//W3C//DTD SVG 1.1//EN" "http://www.w3.org/Graphics/SVG/1.1/DTD/svg11.dtd">
<svg class="icon" width="200px" height="200.00px" viewBox="0 0 1024 1024" version="1.1" xmlns="http://www.w3.org/2000/svg">
<path fill="#E5E5E5" d="M788.375 443.28125c-30.46875-7.40625-55.78125-27.09375-71.25-55.5-15.46875-28.40625-19.03125-61.3125-9.84375-92.8125 1.59375-5.53125 0-11.625-4.21875-15.375-27.9375-25.5-59.8125-44.90625-94.78125-57.84375-5.15625-1.875-10.96875-0.375-14.71875 3.84375-21.28125 24.1875-50.0625 37.40625-81 37.40625-30.9375 0-59.71875-13.3125-81-37.40625-3.75-4.21875-9.5625-5.71875-14.71875-3.84375-34.96875 12.84375-66.84375 32.25-94.78125 57.84375-4.125 3.75-5.8125 9.84375-4.21875 15.375 9.09375 31.5 5.625 64.5-9.84375 92.8125-15.46875 28.40625-40.78125 48.09375-71.25 55.5-5.34375 1.3125-9.46875 5.8125-10.5 11.625-3.5625 19.5-5.25 38.90625-5.25 57.75 0 18.75 1.78125 38.25 5.25 57.75 1.03125 5.71875 5.15625 10.21875 10.5 11.53125 30.46875 7.40625 55.78125 27.09375 71.25 55.5 15.46875 28.40625 19.03125 61.3125 9.84375 92.8125-1.59375 5.53125 0 11.625 4.21875 15.375 27.9375 25.5 59.8125 44.90625 94.78125 57.84375 1.5 0.5625 3 0.84375 4.59375 0.84375 3.75 0 7.5-1.59375 10.125-4.6875 21.28125-24.09375 50.0625-37.40625 81-37.40625 30.9375 0 59.71875 13.21875 81 37.40625 3.75 4.21875 9.46875 5.71875 14.71875 3.84375 34.96875-12.84375 66.75-32.25 94.78125-57.84375 4.125-3.75 5.8125-9.84375 4.21875-15.375-9.09375-31.5-5.625-64.5 9.9375-92.8125 15.46875-28.40625 40.78125-48.09375 71.25-55.5 5.34375-1.3125 9.46875-5.8125 10.5-11.53125 3.5625-19.5 5.25-39 5.25-57.75s-1.78125-38.25-5.25-57.75" />
<path fill="#777777" d="M512.5625 681.78125c-93.28125 0-169.21875-75.9375-169.21875-169.21875s75.9375-169.21875 169.21875-169.21875 169.21875 75.9375 169.21875 169.21875h-46.875c0-67.5-54.84375-122.34375-122.34375-122.34375s-122.34375 54.84375-122.34375 122.34375 54.84375 122.34375 122.34375 122.34375c6.5625 0 13.125-0.5625 19.5-1.5l7.40625 46.3125c-8.90625 1.40625-17.90625 2.0625-26.90625 2.0625z"  />
<path fill="#777777" d="M641.75 949.15625c-12 0-23.625-5.0625-31.96875-14.53125-25.59375-29.0625-60.09375-45-97.21875-45-37.03125 0-71.53125 16.03125-97.21875 45-8.0625 9.1875-19.78125 14.53125-31.96875 14.53125-4.875 0-9.75-0.84375-14.53125-2.625-52.40625-19.3125-100.125-48.375-141.9375-86.625-12.375-11.34375-17.34375-29.25-12.65625-45.5625 11.15625-38.625 6.9375-79.125-12-113.8125-18.75-34.3125-49.21875-58.125-85.875-67.03125-16.5-3.9375-29.25-17.71875-32.4375-34.96875-5.25-28.875-7.875-57.84375-7.875-85.96875s2.625-57.09375 7.875-85.875c3-17.34375 15.75-31.03125 32.4375-35.0625 36.5625-8.90625 67.125-32.71875 85.875-67.03125 18.9375-34.6875 23.25-75.09375 12-113.71875-4.6875-16.40625 0.28125-34.3125 12.65625-45.5625 41.8125-38.25 89.53125-67.3125 141.9375-86.625 16.5-6.09375 34.78125-1.40625 46.5 11.90625 25.6875 29.0625 60.1875 45 97.21875 45 37.125 0 71.625-16.03125 97.21875-45.09375 11.71875-13.3125 30-18 46.5-11.90625 52.3125 19.21875 100.03125 48.375 141.9375 86.625 12.375 11.34375 17.34375 29.25 12.65625 45.5625-11.15625 38.71875-6.9375 79.125 12 113.8125 18.28125 33.375 41.15625 57 76.125 66.46875 2.0625 0.5625 4.03125 1.5 5.8125 2.625l12.65625 8.25c1.59375 1.03125 3.09375 2.34375 4.40625 3.84375 13.59375 15.65625 22.125 35.15625 24.375 55.78125 1.875 17.15625 2.8125 34.21875 2.8125 51 0 28.125-2.625 57-7.875 85.96875-3.1875 17.25-15.84375 30.9375-32.4375 34.96875-36.5625 8.90625-67.125 32.71875-85.875 67.03125-18.9375 34.6875-23.25 75.09375-12.09375 113.8125 4.78125 16.40625-0.28125 34.3125-12.65625 45.65625-41.90625 38.25-89.625 67.40625-141.9375 86.625l-0.09375 0.09375c-4.6875 1.59375-9.5625 2.4375-14.34375 2.4375z m-261.5625-45.5625z m132.375-60.84375c45.46875 0 87.9375 17.34375 121.21875 49.21875 6 5.8125 14.90625 7.40625 22.59375 4.21875 35.8125-15.09375 69-35.53125 99.1875-61.125 6-5.0625 8.625-13.03125 6.9375-20.71875-10.21875-46.59375-3.46875-94.5 19.3125-136.21875 22.6875-41.53125 58.40625-71.625 101.625-86.0625 7.59375-2.53125 13.03125-9.1875 14.15625-17.0625 3.09375-21.09375 4.59375-42 4.59375-62.4375 0-20.53125-1.59375-41.4375-4.59375-62.53125-1.125-7.875-6.5625-14.53125-14.15625-17.0625-43.21875-14.34375-78.9375-44.4375-101.625-86.0625-22.78125-41.71875-29.4375-89.625-19.21875-136.21875 1.6875-7.6875-0.9375-15.65625-6.9375-20.71875-30.09375-25.5-63.375-46.03125-99.1875-61.125-7.6875-3.28125-16.59375-1.59375-22.59375 4.21875-33.28125 31.875-75.75 49.3125-121.21875 49.3125-45.46875 0-87.9375-17.34375-121.125-49.21875-6-5.71875-14.90625-7.40625-22.59375-4.125-35.90625 15.09375-69.1875 35.625-99.28125 61.125-6 5.0625-8.625 13.03125-6.9375 20.71875 10.21875 46.59375 3.5625 94.5-19.21875 136.21875-22.6875 41.625-58.40625 71.71875-101.625 86.0625-7.59375 2.53125-13.03125 9.09375-14.15625 16.96875-3.09375 21.09375-4.59375 42-4.59375 62.53125 0 20.4375 1.59375 41.4375 4.59375 62.4375 1.125 7.875 6.5625 14.53125 14.15625 17.0625 43.21875 14.34375 78.9375 44.53125 101.625 86.0625 22.78125 41.71875 29.4375 89.625 19.21875 136.21875-1.6875 7.6875 0.9375 15.65625 6.9375 20.71875 30.09375 25.5 63.375 46.03125 99.28125 61.125 7.6875 3.1875 16.59375 1.59375 22.59375-4.125 33.1875-32.0625 75.65625-49.40625 121.03125-49.40625z m385.21875-254.71875c-0.09375 0 0 0 0 0z m-770.4375-0.09375z m0.09375-150.75s-0.09375 0 0 0c-0.09375 0 0 0 0 0zM258.5 199.8125z"  /></svg>