<?xml version="1.0" encoding="utf-8"?>
<!-- Generator: Adobe Illustrator 22.1.0, SVG Export Plug-In . SVG Version: 6.00 Build 0)  -->
<svg version="1.1" id="图层_6" xmlns="http://www.w3.org/2000/svg" xmlns:xlink="http://www.w3.org/1999/xlink" x="0px" y="0px"
	 viewBox="0 0 1024 1024" style="enable-background:new 0 0 1024 1024;" xml:space="preserve">
<path style="fill:#666666;" d="M924.8,401.6c-22.6-53.4-54.9-101.3-96-142.4c-41.1-41.1-89-73.4-142.4-96c-9-3.8-18-7.3-27.2-10.5
	v68.6C798.1,279.2,896,416.4,896,576c0,211.7-172.3,384-384,384S128,787.7,128,576c0-157.5,95.3-293.1,231.2-352.3v-69
	c-7.3,2.6-14.5,5.5-21.6,8.5c-53.4,22.6-101.3,54.9-142.4,96c-41.1,41.1-73.4,89-96,142.4C75.8,456.9,64,515.5,64,576
	s11.8,119.1,35.2,174.4c22.6,53.4,54.9,101.3,96,142.4c41.1,41.1,89,73.4,142.4,96c55.3,23.4,113.9,35.2,174.4,35.2
	c60.5,0,119.1-11.8,174.4-35.2c53.4-22.6,101.3-54.9,142.4-96c41.1-41.1,73.4-89,96-142.4C948.2,695.1,960,636.5,960,576
	S948.2,456.9,924.8,401.6z"/>
<circle style="fill-rule:evenodd;clip-rule:evenodd;fill:#E5E5E5;" cx="512" cy="576" r="288"/>
<path style="fill-rule:evenodd;clip-rule:evenodd;fill:#666666;" d="M512,0c17.7,0,32,14.3,32,32v384c0,17.7-14.3,32-32,32
	c-17.7,0-32-14.3-32-32V32C480,14.3,494.3,0,512,0z"/>
</svg>
