<?xml version="1.0" encoding="utf-8"?>
<!-- Generator: Adobe Illustrator 22.1.0, SVG Export Plug-In . SVG Version: 6.00 Build 0)  -->
<svg version="1.1" xmlns="http://www.w3.org/2000/svg" xmlns:xlink="http://www.w3.org/1999/xlink" x="0px" y="0px"
	 viewBox="0 0 1024 1024" style="enable-background:new 0 0 1024 1024;" xml:space="preserve">
<path class="st0" id="star" d="M747.6,430.8l83.1,152.6l169,32.9L882,743.4l21.3,172.9l-155.8-74l-155.8,74L613,743.4L495.5,616.2
	l169-32.9L747.6,430.8"/>
<path class="st1" id="flag" d="M470.4,222.9c2.4,0,4.9,0,7.4,0.1h1.2c46.7,0,103,19.8,157.5,38.9c47.8,16.8,92.9,32.6,135.2,37.4
	c7.4,0.8,15,1.3,22.4,1.3c32.3,0,65.4-8.1,95.8-23.4v289.2c-1.8,2.1-4.4,4.7-8.6,7.3c-9.8,6.1-28.9,13.4-64.6,13.4
	c-11.4,0-23.9-0.8-37.2-2.3c-34.4-3.9-74.6-14.3-117.1-25.4c-61.5-16-125.1-32.5-184-32.8c-4.5-0.4-9-0.6-13.6-0.6
	c-27.1,0-55.2,7.3-83.8,21.7V261.2c3.9-5.7,10-13.8,21-21.2C419,228.6,442.1,222.9,470.4,222.9 M470.4,187.9
	c-99.2,0-119.9,60.8-123.7,60.8c-0.6,0-0.7-1.4-0.7-4.6v336.2c0,10.3,8.4,18.7,18.7,18.7c0,0,46.8-38,100.2-38
	c3.9,0,7.8,0.2,11.8,0.6c94.7,0,211.2,48.1,299,58c15.2,1.7,28.9,2.5,41.1,2.5c94.3,0,106.5-45.1,108-45.1c0.2,0,0.2,1,0.2,3.3V244
	c0-10.3-8.4-18.7-18.7-18.7c0,0-45.8,40.3-112.1,40.3c-6,0-12.2-0.3-18.5-1C688.6,254.7,573.3,188,479,188
	C476.1,187.9,473.2,187.9,470.4,187.9L470.4,187.9z"/>
<path class="st1" id="foot" d="M290.1,952.5c-98.4,0-204.2-23.8-204.2-76c0-48.1,88.2-65.5,126.1-70.8l4.8,34.7c-30.4,4.2-57,11.2-75,19.7
	c-17.4,8.2-20.9,15-20.9,16.4c0,2.3,7.5,13.7,42.4,24.6c33.6,10.5,78.7,16.3,126.8,16.3s93.2-5.8,126.8-16.3
	c34.9-10.9,42.4-22.4,42.4-24.6c0-1.4-3.6-8.2-21-16.5c-18-8.5-44.6-15.5-75.1-19.7l4.8-34.7c38,5.3,126.3,22.7,126.3,70.8
	C494.3,928.7,388.5,952.5,290.1,952.5z"/>
<path class="st1" id="handle" d="M363.6,132.1c0-40.5-33-73.5-73.5-73.5s-73.5,33-73.5,73.5c0,34.1,23.3,62.8,54.8,71.1v639.1
	c0,9.9,8.4,18,18.7,18c10.3,0,18.7-8,18.7-18V203.2C340.3,194.9,363.6,166.1,363.6,132.1z M290.1,170.6c-21.2,0-38.5-17.3-38.5-38.5
	s17.3-38.5,38.5-38.5s38.5,17.3,38.5,38.5S311.3,170.6,290.1,170.6z"/>
</svg>
