<?xml version="1.0" encoding="utf-8"?>
<!-- Generator: Adobe Illustrator 22.1.0, SVG Export Plug-In . SVG Version: 6.00 Build 0)  -->
<svg version="1.1" id="图层_10" xmlns="http://www.w3.org/2000/svg" xmlns:xlink="http://www.w3.org/1999/xlink" x="0px" y="0px"
	 viewBox="0 0 1024 1024" style="enable-background:new 0 0 1024 1024;" xml:space="preserve">
<g>
	<path style="fill:#666666;" d="M682.3,71.2c37.5,16.4,72.6,38,104.6,64.5c-12.9,64.4-3.1,130.3,28.4,187.9
		c31.5,57.7,80.7,100,140.3,121.2c3.1,22.7,4.6,45.2,4.6,67.3c0,21.9-1.6,44.4-4.6,67.1c-59.6,21.2-108.8,63.5-140.3,121.2
		c-31.5,57.7-41.4,123.6-28.5,188c-32,26.5-67,48.1-104.5,64.5c-47.1-43.2-106.5-66.7-170.1-66.7c-63.5,0-122.9,23.5-170,66.6
		c-37.5-16.4-72.6-38-104.6-64.5c12.9-64.3,3.1-130.2-28.4-187.9l0,0l0,0c-31.5-57.7-80.8-100-140.3-121.2
		c-3.1-22.7-4.6-45.1-4.6-67.1c0-22,1.6-44.5,4.6-67.2c59.6-21.2,108.8-63.5,140.3-121.2c31.5-57.6,41.3-123.5,28.4-187.9
		c32-26.5,67.1-48.1,104.6-64.5c47.1,43.2,106.5,66.6,170,66.6C575.8,137.8,635.3,114.4,682.3,71.2 M672.3,0
		c-6.6,0-13.1,2.9-17.8,8.2c-37.4,42.4-87.9,65.7-142.3,65.7c-54.4,0-104.9-23.3-142.2-65.6c-4.7-5.3-11.2-8.2-17.8-8.2
		c-2.7,0-5.4,0.5-8,1.4C282.8,24,226.8,58.2,177.8,103c-7.3,6.7-10.2,17.3-7.4,27c16,55.3,9.8,113.2-17.3,162.9
		c-27.2,49.9-71.6,84.5-125.1,97.4c-9.4,2.3-16.7,10.2-18.5,20.3C3.4,444.9,0.3,479,0.3,512c0,33,3.1,67.1,9.3,101.4
		c1.8,10,9.1,18,18.5,20.3c53.5,13,97.9,47.6,125.1,97.4c27.2,49.8,33.3,107.6,17.3,163c-2.8,9.7,0.1,20.3,7.4,27
		c49,44.8,105,78.9,166.4,101.5c2.6,1,5.3,1.5,8,1.5c6.7,0,13.1-2.9,17.8-8.2c37.4-42.3,87.9-65.6,142.3-65.6
		c54.4,0,104.9,23.3,142.2,65.6c4.7,5.3,11.2,8.2,17.9,8.2c2.7,0,5.3-0.5,7.9-1.4c61.3-22.5,117.2-56.7,166.4-101.5
		c7.3-6.7,10.2-17.3,7.4-27c-16-55.3-9.8-113.2,17.4-163c27.2-49.8,71.6-84.4,125.1-97.4c9.4-2.3,16.6-10.2,18.5-20.2
		c6.2-34.3,9.3-68.5,9.3-101.4c0-33-3.1-67.1-9.3-101.4v0c-1.8-10-9.1-18-18.5-20.3c-53.5-13-97.9-47.6-125.1-97.4
		c-27.2-49.8-33.3-107.6-17.3-163c2.8-9.7-0.1-20.3-7.4-27c-49-44.8-105-78.9-166.4-101.5C677.7,0.5,675,0,672.3,0L672.3,0z"/>
</g>
<path style="fill:#E5E5E5;" d="M418.2,694.3c-209.4,88.8-248.4,38.9-117-149.8c-198.6-111.8-184.7-174.1,41.8-186.8
	c-38.2-228.3,18.1-256,169.1-83.2c150.9-172.8,207.3-145.1,169.1,83.2c226.4,12.7,240.3,75,41.8,186.8
	c131.4,188.7,92.4,238.7-117,149.8C543.3,916.9,480.7,916.9,418.2,694.3z"/>
<path style="fill:#666666;" d="M512,311.2c-104.8,0-190,90-190,200.7c0,110.7,85.3,200.8,190,200.8c10.5,0,21.3-1.1,34-3.6
	c14.8-2.8,24.6-17.8,21.9-33.3c-2.7-15.6-16.8-26.1-31.6-23.2c-9.4,1.8-17.1,2.6-24.2,2.6c-74.8,0-135.6-64.3-135.6-143.3
	S437.3,368.6,512,368.6c74.9,0,135.6,64.3,135.6,143.3c0,7.6-0.8,15.7-2.5,25.6c-2.7,15.6,7.1,30.6,21.8,33.4
	c14.8,2.8,28.9-7.5,31.6-23.1c2.3-13.4,3.4-24.8,3.4-35.9C702.1,401.2,616.8,311.2,512,311.2L512,311.2L512,311.2z"/>
</svg>
