<?xml version="1.0" encoding="utf-8"?>
<!-- Generator: Adobe Illustrator 22.1.0, SVG Export Plug-In . SVG Version: 6.00 Build 0)  -->
<svg version="1.1" xmlns="http://www.w3.org/2000/svg" xmlns:xlink="http://www.w3.org/1999/xlink" x="0px" y="0px"
	 viewBox="0 0 1024 1024" style="enable-background:new 0 0 1024 1024;" xml:space="preserve">
<g id="图层_1" style="display:none;">
</g>
<g id="图层_2">
	<g>
		<path style="fill-rule:evenodd;clip-rule:evenodd;fill:#8BC271;" d="M758.3,827.1c37,0,67,36.5,67,81.6c0,45.1-30,81.6-67,81.6
			c-37,0-67-36.5-67-81.6C691.3,863.6,721.3,827.1,758.3,827.1z"/>
		<g>
			<path d="M274.7,816.6c32.7,0,59.3,26.5,59.3,59V994H215.4V875.6C215.4,843,242,816.6,274.7,816.6 M274.7,786.6
				c-49.3,0-89.3,39.9-89.3,89V1024H364V875.6C364,826.4,324,786.6,274.7,786.6L274.7,786.6z"/>
		</g>
		<g>
			<path d="M747.2,816.6c32.7,0,59.3,26.5,59.3,59V994H687.9V875.6C687.9,843,714.5,816.6,747.2,816.6 M747.2,786.6
				c-49.3,0-89.3,39.9-89.3,89V1024h178.6V875.6C836.4,826.4,796.5,786.6,747.2,786.6L747.2,786.6z"/>
		</g>
		<g>
			<path style="display:none;fill:none;" d="M572.1,994V875.6c0-32.6-26.6-59-59.3-59s-59.3,26.5-59.3,59V994h23.3h73.5H572.1z"/>
			<path d="M512.8,786.6c-49.3,0-89.3,39.9-89.3,89V1024h53.3v-30h-23.3V875.6c0-32.6,26.6-59,59.3-59s59.3,26.5,59.3,59V994h-21.7
				v30h51.7V875.6C602.1,826.4,562.1,786.6,512.8,786.6z"/>
			<rect x="476.8" y="994" style="display:none;" width="73.5" height="30"/>
		</g>
	</g>
	<path style="fill-rule:evenodd;clip-rule:evenodd;fill:#8BC271;" d="M590.4,311.7c123.3,0,223.2,86.4,223.2,192.9
		c0,106.6-99.9,192.9-223.2,192.9s-223.2-86.4-223.2-192.9C367.2,398,467.1,311.7,590.4,311.7z"/>
	<g>
		<path style="fill-rule:evenodd;clip-rule:evenodd;" d="M296.9,578.8c8.3,0,15,6.6,15,14.8v103.9c0,8.2-6.7,14.8-15,14.8
			c-8.3,0-15-6.6-15-14.8V593.6C281.9,585.4,288.6,578.8,296.9,578.8z"/>
		<path style="fill-rule:evenodd;clip-rule:evenodd;" d="M415.9,578.8c8.3,0,15,6.6,15,14.8v103.9c0,8.2-6.7,14.8-15,14.8
			c-8.3,0-15-6.6-15-14.8V593.6C400.9,585.4,407.6,578.8,415.9,578.8z"/>
		<path style="fill-rule:evenodd;clip-rule:evenodd;" d="M520.2,578.8c8.2,0,14.9,6.6,14.9,14.8v103.9c0,8.2-6.7,14.8-14.9,14.8
			c-8.2,0-14.9-6.6-14.9-14.8V593.6C505.3,585.4,512,578.8,520.2,578.8z"/>
		<path style="fill-rule:evenodd;clip-rule:evenodd;" d="M624.3,578.8c8.3,0,15,6.6,15,14.8v103.9c0,8.2-6.7,14.8-15,14.8
			c-8.3,0-15-6.6-15-14.8V593.6C609.3,585.4,616,578.8,624.3,578.8z"/>
		<path style="fill-rule:evenodd;clip-rule:evenodd;" d="M728.5,578.8c8.2,0,14.9,6.6,14.9,14.8v103.9c0,8.2-6.7,14.8-14.9,14.8
			s-14.9-6.6-14.9-14.8V593.6C713.7,585.4,720.3,578.8,728.5,578.8z"/>
		<path style="fill-rule:evenodd;clip-rule:evenodd;" d="M178,563.6h669.6c8.2,0,14.9,6.7,14.9,15c0,8.3-6.7,15-14.9,15H178
			c-8.2,0-14.9-6.7-14.9-15C163.1,570.3,169.7,563.6,178,563.6z"/>
	</g>
	<g>
		<path d="M947,994h-40V727.2c0-16.1-13.2-29.2-29.5-29.7V601c0-49.1-9.7-96.8-28.7-141.6c-18.4-43.3-44.7-82.2-78.2-115.6
			c-33.5-33.4-72.5-59.6-116-77.9c-45-19-92.8-28.6-142.1-28.6c-79.4,0-154.9,25-218.3,72.2l17.9,24.1
			c58.2-43.3,127.5-66.2,200.4-66.2c184.7,0,335,149.7,335,333.8v96.5c-29.2,0-78.3,0-137.4,0c-3.7,0-7.4,0-11.2,0
			c-11.6,0-23.6,0-35.8,0c-174.2,0-404.3,0-485.6,0V601c0-53.8,13.1-107.2,38-154.6l-26.6-14c-27.1,51.6-41.5,109.9-41.5,168.5v96.5
			c0,0-0.1,0-0.1,0c-16.8,0-30.4,13.3-30.4,29.7V994H77c-8.3,0-15,6.7-15,15c0,8.3,6.7,15,15,15h70.4h230.5v-30H147.5V727.5h30
			h485.6h35.8H710h137.4h29.2c0.2,0,0.3,0,0.4,0.1v266.4c-0.1,0-0.2,0.1-0.4,0.1H550.4v30h326.3H947c8.3,0,15-6.7,15-15
			C962,1000.7,955.3,994,947,994z"/>
		<rect x="410.7" y="994" width="66.2" height="30"/>
		<path d="M279.3,361.4l-20.8-21.6c-10.3,10-20.2,20.7-29.2,31.8l23.2,19C260.7,380.4,269.8,370.6,279.3,361.4z"/>
	</g>
	<g>
		<path style="fill-rule:evenodd;clip-rule:evenodd;" d="M512,0c8.3,0,15,6.6,15,14.8v118.7c0,8.2-6.7,14.8-15,14.8
			c-8.3,0-15-6.6-15-14.8V14.8C497,6.6,503.7,0,512,0z"/>
		<g>
			<path d="M571.3,149.6V238H452.7v-88.4H571.3 M586.4,119.6H437.6c-8.2,0-14.9,6.6-14.9,14.8v118.7c0,8.2,6.7,14.8,14.9,14.8h148.8
				c8.2,0,14.9-6.6,14.9-14.8V134.4C601.3,126.2,594.6,119.6,586.4,119.6L586.4,119.6z"/>
		</g>
	</g>
</g>
</svg>
