<?xml version="1.0" encoding="utf-8"?>
<!-- Generator: Adobe Illustrator 22.1.0, SVG Export Plug-In . SVG Version: 6.00 Build 0)  -->
<svg version="1.1" xmlns="http://www.w3.org/2000/svg" xmlns:xlink="http://www.w3.org/1999/xlink" x="0px" y="0px"
	 viewBox="0 0 1024 1024" style="enable-background:new 0 0 1024 1024;" xml:space="preserve">
<g id="图层_1" style="display:none;">
</g>
<g id="图层_2" style="display:none;">
	<g style="display:inline;">
		<path style="fill-rule:evenodd;clip-rule:evenodd;fill:#8BC271;" d="M758.3,827.1c37,0,67,36.5,67,81.6c0,45.1-30,81.6-67,81.6
			c-37,0-67-36.5-67-81.6C691.3,863.6,721.3,827.1,758.3,827.1z"/>
		<g>
			<path d="M274.7,816.6c32.7,0,59.3,26.5,59.3,59V994H215.4V875.6C215.4,843,242,816.6,274.7,816.6 M274.7,786.6
				c-49.3,0-89.3,39.9-89.3,89V1024H364V875.6C364,826.4,324,786.6,274.7,786.6L274.7,786.6z"/>
		</g>
		<g>
			<path d="M747.2,816.6c32.7,0,59.3,26.5,59.3,59V994H687.9V875.6C687.9,843,714.5,816.6,747.2,816.6 M747.2,786.6
				c-49.3,0-89.3,39.9-89.3,89V1024h178.6V875.6C836.4,826.4,796.5,786.6,747.2,786.6L747.2,786.6z"/>
		</g>
		<g>
			<path style="display:none;fill:none;" d="M572.1,994V875.6c0-32.6-26.6-59-59.3-59s-59.3,26.5-59.3,59V994h23.3h73.5H572.1z"/>
			<path d="M512.8,786.6c-49.3,0-89.3,39.9-89.3,89V1024h53.3v-30h-23.3V875.6c0-32.6,26.6-59,59.3-59s59.3,26.5,59.3,59V994h-21.7
				v30h51.7V875.6C602.1,826.4,562.1,786.6,512.8,786.6z"/>
			<rect x="476.8" y="994" style="display:none;" width="73.5" height="30"/>
		</g>
	</g>
	<path style="display:inline;fill-rule:evenodd;clip-rule:evenodd;fill:#8BC271;" d="M590.4,311.7c123.3,0,223.2,86.4,223.2,192.9
		c0,106.6-99.9,192.9-223.2,192.9s-223.2-86.4-223.2-192.9C367.2,398,467.1,311.7,590.4,311.7z"/>
	<g style="display:inline;">
		<path style="fill-rule:evenodd;clip-rule:evenodd;" d="M296.9,578.8c8.3,0,15,6.6,15,14.8v103.9c0,8.2-6.7,14.8-15,14.8
			c-8.3,0-15-6.6-15-14.8V593.6C281.9,585.4,288.6,578.8,296.9,578.8z"/>
		<path style="fill-rule:evenodd;clip-rule:evenodd;" d="M415.9,578.8c8.3,0,15,6.6,15,14.8v103.9c0,8.2-6.7,14.8-15,14.8
			c-8.3,0-15-6.6-15-14.8V593.6C400.9,585.4,407.6,578.8,415.9,578.8z"/>
		<path style="fill-rule:evenodd;clip-rule:evenodd;" d="M520.2,578.8c8.2,0,14.9,6.6,14.9,14.8v103.9c0,8.2-6.7,14.8-14.9,14.8
			c-8.2,0-14.9-6.6-14.9-14.8V593.6C505.3,585.4,512,578.8,520.2,578.8z"/>
		<path style="fill-rule:evenodd;clip-rule:evenodd;" d="M624.3,578.8c8.3,0,15,6.6,15,14.8v103.9c0,8.2-6.7,14.8-15,14.8
			c-8.3,0-15-6.6-15-14.8V593.6C609.3,585.4,616,578.8,624.3,578.8z"/>
		<path style="fill-rule:evenodd;clip-rule:evenodd;" d="M728.5,578.8c8.2,0,14.9,6.6,14.9,14.8v103.9c0,8.2-6.7,14.8-14.9,14.8
			s-14.9-6.6-14.9-14.8V593.6C713.7,585.4,720.3,578.8,728.5,578.8z"/>
		<path style="fill-rule:evenodd;clip-rule:evenodd;" d="M178,563.6h669.6c8.2,0,14.9,6.7,14.9,15c0,8.3-6.7,15-14.9,15H178
			c-8.2,0-14.9-6.7-14.9-15C163.1,570.3,169.7,563.6,178,563.6z"/>
	</g>
	<g style="display:inline;">
		<path d="M947,994h-40V727.2c0-16.1-13.2-29.2-29.5-29.7V601c0-49.1-9.7-96.8-28.7-141.6c-18.4-43.3-44.7-82.2-78.2-115.6
			c-33.5-33.4-72.5-59.6-116-77.9c-45-19-92.8-28.6-142.1-28.6c-79.4,0-154.9,25-218.3,72.2l17.9,24.1
			c58.2-43.3,127.5-66.2,200.4-66.2c184.7,0,335,149.7,335,333.8v96.5c-29.2,0-78.3,0-137.4,0c-3.7,0-7.4,0-11.2,0
			c-11.6,0-23.6,0-35.8,0c-174.2,0-404.3,0-485.6,0V601c0-53.8,13.1-107.2,38-154.6l-26.6-14c-27.1,51.6-41.5,109.9-41.5,168.5v96.5
			c0,0-0.1,0-0.1,0c-16.8,0-30.4,13.3-30.4,29.7V994H77c-8.3,0-15,6.7-15,15c0,8.3,6.7,15,15,15h70.4h230.5v-30H147.5V727.5h30
			h485.6h35.8H710h137.4h29.2c0.2,0,0.3,0,0.4,0.1v266.4c-0.1,0-0.2,0.1-0.4,0.1H550.4v30h326.3H947c8.3,0,15-6.7,15-15
			C962,1000.7,955.3,994,947,994z"/>
		<rect x="410.7" y="994" width="66.2" height="30"/>
		<path d="M279.3,361.4l-20.8-21.6c-10.3,10-20.2,20.7-29.2,31.8l23.2,19C260.7,380.4,269.8,370.6,279.3,361.4z"/>
	</g>
	<g style="display:inline;">
		<path style="fill-rule:evenodd;clip-rule:evenodd;" d="M512,0c8.3,0,15,6.6,15,14.8v118.7c0,8.2-6.7,14.8-15,14.8
			c-8.3,0-15-6.6-15-14.8V14.8C497,6.6,503.7,0,512,0z"/>
		<g>
			<path d="M571.3,149.6V238H452.7v-88.4H571.3 M586.4,119.6H437.6c-8.2,0-14.9,6.6-14.9,14.8v118.7c0,8.2,6.7,14.8,14.9,14.8h148.8
				c8.2,0,14.9-6.6,14.9-14.8V134.4C601.3,126.2,594.6,119.6,586.4,119.6L586.4,119.6z"/>
		</g>
	</g>
</g>
<g id="图层_3">
	<g>
		<path style="fill-rule:evenodd;clip-rule:evenodd;fill:#8BC271;" d="M276.3,96.4c141.5,0,256.3,118.2,256.3,263.9
			c0,145.8-114.7,263.9-256.3,263.9C134.8,624.3,20,506.1,20,360.4C20,214.6,134.8,96.4,276.3,96.4z"/>
		<path style="fill-rule:evenodd;clip-rule:evenodd;fill:none;stroke:#000000;stroke-width:30;stroke-miterlimit:10;" d="
			M466.6,1004c12-138.9,125.3-247.8,263.2-247.8h16c137.6,0,250.7,108.3,263.1,246.7"/>
		<path style="fill-rule:evenodd;clip-rule:evenodd;fill:#8BC271;" d="M696.7,442.9c61.9,0,112.1,62.8,112.1,140.2
			c0,77.4-50.2,140.2-112.1,140.2s-112.1-62.8-112.1-140.2C584.6,505.6,634.8,442.9,696.7,442.9z"/>
		<path style="fill-rule:evenodd;clip-rule:evenodd;fill:none;stroke:#000000;stroke-width:30;stroke-miterlimit:10;" d="M906,583.1
			c0,95.7-75.3,173.2-168.2,173.2s-168.2-77.5-168.2-173.2c0-95.7,75.3-173.2,168.2-173.2c25.1,0,48.9,5.7,70.3,15.8 M867.7,473
			c8.8,11,16.3,23.2,22.3,36.2"/>
	</g>
	<g>
		<path style="fill-rule:evenodd;clip-rule:evenodd;" d="M173.6,513.9h360c8.3,0,15,6.9,15,15.4s-6.7,15.4-15,15.4h-360
			c-8.3,0-15-6.9-15-15.4S165.3,513.9,173.6,513.9z"/>
		<path style="fill-rule:evenodd;clip-rule:evenodd;" d="M173.6,728.4h360c8.3,0,15,6.9,15,15.4c0,8.5-6.7,15.4-15,15.4h-360
			c-8.3,0-15-6.9-15-15.4C158.6,735.3,165.3,728.4,173.6,728.4z"/>
		<path style="fill-rule:evenodd;clip-rule:evenodd;" d="M173.6,316h540c8.3,0,15,6.9,15,15.4c0,8.5-6.7,15.4-15,15.4h-540
			c-8.3,0-15-6.9-15-15.4C158.6,322.9,165.3,316,173.6,316z"/>
	</g>
	<g>
		<path style="fill-rule:evenodd;clip-rule:evenodd;" d="M228.2,50c0-18.2,14.3-33,32-33h384.4c17.7,0,32,14.8,32,33s-14.3,33-32,33
			H260.3C242.6,83,228.2,68.2,228.2,50z"/>
		<path style="fill-rule:evenodd;clip-rule:evenodd;fill:none;stroke:#000000;stroke-width:30;stroke-miterlimit:10;" d="
			M485.6,991.2c-18.1,0-36.4,0-54.4,0 M365.6,991.2c-86.4,0-154.4,0-154.4,0C105.1,991.2,19,902.6,19,793.3c0,0,0-167.8,0-281.9
			 M19,452.8c0-20.6,0-40.5,0-59.2 M19,332.7c0-40.9,0-67.3,0-67.3c0-109.3,86.1-197.9,192.2-197.9h512.6
			c106.2,0,192.2,88.6,192.2,197.9c0,0,0,66,0,151.2"/>
	</g>
</g>
</svg>
