<?xml version="1.0" encoding="utf-8"?>
<!-- Generator: Adobe Illustrator 22.1.0, SVG Export Plug-In . SVG Version: 6.00 Build 0)  -->
<svg version="1.1" xmlns="http://www.w3.org/2000/svg" xmlns:xlink="http://www.w3.org/1999/xlink" x="0px" y="0px"
	 viewBox="0 0 1024 1024" style="enable-background:new 0 0 1024 1024;" xml:space="preserve">
<style type="text/css">
</style>
	<g>
		<path id="head" class="st1" d="M698.3,217.6c-15-24.2-33.8-46.6-56.2-66.6c-62.5-56.1-145.3-87.1-233.2-87.1S238.3,94.9,175.7,151
			C117.4,203.4,83,271.9,77.5,345.7c-0.5,7-0.8,14-0.8,21.1c0,78.4,32,151,90.5,206.6c0,38.4,0,88.6,0,89.2l0.1,47l0,17.2l24.1-8.9
			l36.1-13.3c1.4-0.5,32.1-12,68.1-34.8c46.1,0.3,72.5,0.1,92.2,0c7.9-0.1,14.6-0.1,21.1-0.1c87.8,0,170.7-30.9,233.2-87.1
			c63.9-57.4,99.1-134,99.1-215.8C741.2,313.6,726.3,262.6,698.3,217.6z M408.9,580.2c-6.6,0-13.6,0.1-21.7,0.1
			c-21.3,0.2-50.4,0.4-104.3-0.1l-14.1-0.1l-11.6,8c-0.1,0.1-0.3,0.2-0.4,0.3c0-12.6,0-24.9,0-34.8l0.1-21.1l-16.3-13.5
			c-24.6-20.4-43.3-43.9-55.8-69.8c-12.2-25.3-18.5-53-18.5-82.2c0-117.6,108.9-213.3,242.7-213.3c124,0,226.5,82.1,240.9,187.8
			c1.1,8.4,1.8,16.9,1.8,25.6C651.6,484.5,542.8,580.2,408.9,580.2z"/>
		<path id="face" class="st3" d="M408.9,153.5c-133.8,0-242.7,95.7-242.7,213.3c0,29.2,6.3,56.9,18.5,82.2
			c51.7,31.5,112.5,49.7,177.5,49.7c120.8,0,227-62.8,287.7-157.5C635.5,235.7,532.9,153.5,408.9,153.5z"/>
		<path id="eye_2_" class="st1" d="M317,249.6c18.9,0,34.1,15.7,34.1,35c0,19.3-15.3,35-34.1,35c-18.9,0-34.1-15.7-34.1-35
			C282.9,265.2,298.1,249.6,317,249.6z"/>
		<path id="eye_3_" class="st1" d="M500.9,249.6c19.1,0,34.6,15.7,34.6,35c0,19.3-15.5,35-34.6,35c-19.1,0-34.6-15.7-34.6-35
			C466.3,265.2,481.8,249.6,500.9,249.6z"/>
		<path id="mouth" class="st2" d="M362.2,498.8c-65,0-125.7-18.2-177.5-49.7c12.5,25.9,31.2,49.4,55.8,69.8l16.3,13.5l-0.1,21.1
			c0,9.9,0,22.2,0,34.8c0.1-0.1,0.3-0.2,0.4-0.3l11.6-8l14.1,0.1c54,0.5,83.1,0.3,104.3,0.1c8.2-0.1,15.1-0.1,21.7-0.1
			c133.8,0,242.7-95.7,242.7-213.3c0-8.7-0.6-17.2-1.8-25.6C589.2,436,483.1,498.8,362.2,498.8z"/>
	</g>
	<g>
		<path id="head_1_" class="st1" d="M877.4,870.5c-0.4-1.5-7.6-26-14.8-49.6c54.7-54.6,85.6-128.7,85.6-207.7
			c0-43.4-9.4-84.5-26.2-121.6c-45.4-100-144.9-169.6-260.1-169.6c-114,0-212.7,68.2-258.7,166.6c-17.7,37.8-27.6,80-27.6,124.6
			c0,160.4,128.2,291,285.9,291.2c31.8,0.5,61.1-6,79.1-11.2l135.2,55.1l27.6,11.3l-6-20.7L877.4,870.5z M783.3,772l-24,19.3
			l4.8,14.8l-21.1-8.6l-16.5,6.3c-0.3,0.1-31.3,11.7-63.7,11.1l-0.8,0c-93,0-171.1-66.5-191.5-155.5c-3.4-14.8-5.2-30.2-5.2-46.1
			c0-111.2,88.2-201.6,196.7-201.6s196.7,90.4,196.7,201.6c0,16.4-1.9,32.6-5.6,48.1C842.7,704.7,818.5,743.6,783.3,772z"/>
		<path id="face_1_" class="st3" d="M661.9,411.6c-108.5,0-196.7,90.4-196.7,201.6c0,15.9,1.8,31.3,5.2,46.1
			c47.5,52.3,116,85.2,192.2,85.2c75.2,0,143-32,190.4-83.2c3.7-15.6,5.6-31.7,5.6-48.1C858.6,502.1,770.4,411.6,661.9,411.6z"/>
		<path id="eye" class="st1" d="M593.1,531.2c19.1,0,34.6,15.7,34.6,35c0,19.3-15.5,35-34.6,35s-34.6-15.7-34.6-35
			C558.5,546.9,574,531.2,593.1,531.2z"/>
		<path id="eye_1_" class="st1" d="M754,531.2c18.9,0,34.1,15.7,34.1,35c0,19.3-15.3,35-34.1,35c-18.9,0-34.1-15.7-34.1-35
			C719.8,546.9,735.1,531.2,754,531.2z"/>
		<path id="mouth_1_" class="st2" d="M662.6,744.6c-76.2,0-144.8-32.9-192.2-85.2c20.4,89,98.5,155.5,191.5,155.5l0.8,0
			c32.4,0.6,63.4-11,63.7-11.1l16.5-6.3l21.1,8.6l-4.8-14.8l24-19.3c35.3-28.4,59.4-67.2,69.7-110.6
			C805.6,712.5,737.9,744.6,662.6,744.6z"/>
	</g>
</svg>
