<?xml version="1.0" encoding="utf-8"?>
<!-- Generator: Adobe Illustrator 22.1.0, SVG Export Plug-In . SVG Version: 6.00 Build 0)  -->
<svg version="1.1" xmlns="http://www.w3.org/2000/svg" xmlns:xlink="http://www.w3.org/1999/xlink" x="0px" y="0px"
	 viewBox="0 0 1024 185" style="enable-background:new 0 0 1024 185;" xml:space="preserve">
<style type="text/css">
	.st0{display:none;}
	.st1{opacity:0.8;fill:#9EC56D;}
	.st2{opacity:0.6;fill-rule:evenodd;clip-rule:evenodd;fill:#9EC56D;}
	.st3{opacity:0.4;fill-rule:evenodd;clip-rule:evenodd;fill:#9EC56D;}
	.st4{opacity:0.2;fill-rule:evenodd;clip-rule:evenodd;fill:#9EC56D;}
</style>
<g>
	<path id="_x34_" class="st1" d="M1024,184V88.2C937.8,38.5,780.6-6.3,522.8,66.5C229.8,149.1,55.6,80.4,0,51.4V184H1024z"/>
	<path id="_x33_" class="st2" d="M1024,24.6C987.7,19.5,885.2,18,670,97c-28,12.2-156.1,81.7-334.2,21.2
		C214.2,76.9,92.5,47.9,0,54.9V185h1024V24.6z"/>
	<path id="_x32_" class="st3" d="M5.6,29.3L0,28.2V185h728.8C309.1-65.8,5.6,29.3,5.6,29.3z"/>
	<path id="_x31_" class="st4" d="M1024,109.3C927.3,162,710.2,95.5,669.3,75.7C266.1-83.6,60,71.2,0,130.4V185h1024V109.3z"/>
</g>
</svg>
